G04 #@! TF.FileFunction,Legend,Top*
%FSLAX46Y46*%
G04 Gerber Fmt 4.6, Leading zero omitted, Abs format (unit mm)*
G04 Created by KiCad (PCBNEW 4.0.5) date 04/25/17 13:15:46*
%MOMM*%
%LPD*%
G01*
G04 APERTURE LIST*
%ADD10C,0.100000*%
%ADD11C,0.200000*%
%ADD12C,0.150000*%
%ADD13C,0.127000*%
%ADD14C,0.099060*%
G04 APERTURE END LIST*
D10*
D11*
X173736000Y-59436000D02*
G75*
G03X173736000Y-59436000I-127000J0D01*
G01*
X173736000Y-57404000D02*
G75*
G03X173736000Y-57404000I-127000J0D01*
G01*
X173609000Y-57404000D02*
X173609000Y-59436000D01*
D12*
X174093381Y-58872381D02*
X174093381Y-57872381D01*
X174474334Y-57872381D01*
X174569572Y-57920000D01*
X174617191Y-57967619D01*
X174664810Y-58062857D01*
X174664810Y-58205714D01*
X174617191Y-58300952D01*
X174569572Y-58348571D01*
X174474334Y-58396190D01*
X174093381Y-58396190D01*
X175426715Y-58348571D02*
X175569572Y-58396190D01*
X175617191Y-58443810D01*
X175664810Y-58539048D01*
X175664810Y-58681905D01*
X175617191Y-58777143D01*
X175569572Y-58824762D01*
X175474334Y-58872381D01*
X175093381Y-58872381D01*
X175093381Y-57872381D01*
X175426715Y-57872381D01*
X175521953Y-57920000D01*
X175569572Y-57967619D01*
X175617191Y-58062857D01*
X175617191Y-58158095D01*
X175569572Y-58253333D01*
X175521953Y-58300952D01*
X175426715Y-58348571D01*
X175093381Y-58348571D01*
X175950524Y-57872381D02*
X176521953Y-57872381D01*
X176236238Y-58872381D02*
X176236238Y-57872381D01*
X177331477Y-58872381D02*
X176855286Y-58872381D01*
X176855286Y-57872381D01*
D11*
X173863000Y-94996000D02*
G75*
G03X173863000Y-94996000I-127000J0D01*
G01*
X173863000Y-92964000D02*
G75*
G03X173863000Y-92964000I-127000J0D01*
G01*
D12*
X174093381Y-94432381D02*
X174093381Y-93432381D01*
X174474334Y-93432381D01*
X174569572Y-93480000D01*
X174617191Y-93527619D01*
X174664810Y-93622857D01*
X174664810Y-93765714D01*
X174617191Y-93860952D01*
X174569572Y-93908571D01*
X174474334Y-93956190D01*
X174093381Y-93956190D01*
X175426715Y-93908571D02*
X175569572Y-93956190D01*
X175617191Y-94003810D01*
X175664810Y-94099048D01*
X175664810Y-94241905D01*
X175617191Y-94337143D01*
X175569572Y-94384762D01*
X175474334Y-94432381D01*
X175093381Y-94432381D01*
X175093381Y-93432381D01*
X175426715Y-93432381D01*
X175521953Y-93480000D01*
X175569572Y-93527619D01*
X175617191Y-93622857D01*
X175617191Y-93718095D01*
X175569572Y-93813333D01*
X175521953Y-93860952D01*
X175426715Y-93908571D01*
X175093381Y-93908571D01*
X175950524Y-93432381D02*
X176521953Y-93432381D01*
X176236238Y-94432381D02*
X176236238Y-93432381D01*
X177331477Y-94432381D02*
X176855286Y-94432381D01*
X176855286Y-93432381D01*
D11*
X173736000Y-92964000D02*
X173736000Y-94996000D01*
D12*
X175839477Y-96972381D02*
X175363286Y-96972381D01*
X175363286Y-95972381D01*
X176172810Y-96591429D02*
X176934715Y-96591429D01*
X175966477Y-91892381D02*
X175490286Y-91892381D01*
X175490286Y-90892381D01*
X176299810Y-91511429D02*
X177061715Y-91511429D01*
X176680763Y-91892381D02*
X176680763Y-91130476D01*
X175966477Y-61285381D02*
X175633143Y-60809190D01*
X175395048Y-61285381D02*
X175395048Y-60285381D01*
X175776001Y-60285381D01*
X175871239Y-60333000D01*
X175918858Y-60380619D01*
X175966477Y-60475857D01*
X175966477Y-60618714D01*
X175918858Y-60713952D01*
X175871239Y-60761571D01*
X175776001Y-60809190D01*
X175395048Y-60809190D01*
X176395048Y-60904429D02*
X177156953Y-60904429D01*
X176093477Y-56332381D02*
X175760143Y-55856190D01*
X175522048Y-56332381D02*
X175522048Y-55332381D01*
X175903001Y-55332381D01*
X175998239Y-55380000D01*
X176045858Y-55427619D01*
X176093477Y-55522857D01*
X176093477Y-55665714D01*
X176045858Y-55760952D01*
X175998239Y-55808571D01*
X175903001Y-55856190D01*
X175522048Y-55856190D01*
X176522048Y-55951429D02*
X177283953Y-55951429D01*
X176903001Y-56332381D02*
X176903001Y-55570476D01*
X144994381Y-80676238D02*
X144994381Y-80104809D01*
X145994381Y-80390524D02*
X144994381Y-80390524D01*
X145994381Y-79771476D02*
X144994381Y-79771476D01*
X144994381Y-79390523D01*
X145042000Y-79295285D01*
X145089619Y-79247666D01*
X145184857Y-79200047D01*
X145327714Y-79200047D01*
X145422952Y-79247666D01*
X145470571Y-79295285D01*
X145518190Y-79390523D01*
X145518190Y-79771476D01*
X145708667Y-78819095D02*
X145708667Y-78342904D01*
X145994381Y-78914333D02*
X144994381Y-78581000D01*
X145994381Y-78247666D01*
X144994381Y-78009571D02*
X144994381Y-77390523D01*
X145375333Y-77723857D01*
X145375333Y-77580999D01*
X145422952Y-77485761D01*
X145470571Y-77438142D01*
X145565810Y-77390523D01*
X145803905Y-77390523D01*
X145899143Y-77438142D01*
X145946762Y-77485761D01*
X145994381Y-77580999D01*
X145994381Y-77866714D01*
X145946762Y-77961952D01*
X145899143Y-78009571D01*
X145994381Y-76438142D02*
X145994381Y-77009571D01*
X145994381Y-76723857D02*
X144994381Y-76723857D01*
X145137238Y-76819095D01*
X145232476Y-76914333D01*
X145280095Y-77009571D01*
X145994381Y-75485761D02*
X145994381Y-76057190D01*
X145994381Y-75771476D02*
X144994381Y-75771476D01*
X145137238Y-75866714D01*
X145232476Y-75961952D01*
X145280095Y-76057190D01*
X144994381Y-74628618D02*
X144994381Y-74819095D01*
X145042000Y-74914333D01*
X145089619Y-74961952D01*
X145232476Y-75057190D01*
X145422952Y-75104809D01*
X145803905Y-75104809D01*
X145899143Y-75057190D01*
X145946762Y-75009571D01*
X145994381Y-74914333D01*
X145994381Y-74723856D01*
X145946762Y-74628618D01*
X145899143Y-74580999D01*
X145803905Y-74533380D01*
X145565810Y-74533380D01*
X145470571Y-74580999D01*
X145422952Y-74628618D01*
X145375333Y-74723856D01*
X145375333Y-74914333D01*
X145422952Y-75009571D01*
X145470571Y-75057190D01*
X145565810Y-75104809D01*
X145994381Y-74104809D02*
X144994381Y-74104809D01*
X144994381Y-73866714D01*
X145042000Y-73723856D01*
X145137238Y-73628618D01*
X145232476Y-73580999D01*
X145422952Y-73533380D01*
X145565810Y-73533380D01*
X145756286Y-73580999D01*
X145851524Y-73628618D01*
X145946762Y-73723856D01*
X145994381Y-73866714D01*
X145994381Y-74104809D01*
X145089619Y-73152428D02*
X145042000Y-73104809D01*
X144994381Y-73009571D01*
X144994381Y-72771475D01*
X145042000Y-72676237D01*
X145089619Y-72628618D01*
X145184857Y-72580999D01*
X145280095Y-72580999D01*
X145422952Y-72628618D01*
X145994381Y-73200047D01*
X145994381Y-72580999D01*
X130691000Y-71881904D02*
X130643381Y-71977142D01*
X130643381Y-72119999D01*
X130691000Y-72262857D01*
X130786238Y-72358095D01*
X130881476Y-72405714D01*
X131071952Y-72453333D01*
X131214810Y-72453333D01*
X131405286Y-72405714D01*
X131500524Y-72358095D01*
X131595762Y-72262857D01*
X131643381Y-72119999D01*
X131643381Y-72024761D01*
X131595762Y-71881904D01*
X131548143Y-71834285D01*
X131214810Y-71834285D01*
X131214810Y-72024761D01*
X131643381Y-71405714D02*
X130643381Y-71405714D01*
X131643381Y-70834285D01*
X130643381Y-70834285D01*
X131643381Y-70358095D02*
X130643381Y-70358095D01*
X130643381Y-70120000D01*
X130691000Y-69977142D01*
X130786238Y-69881904D01*
X130881476Y-69834285D01*
X131071952Y-69786666D01*
X131214810Y-69786666D01*
X131405286Y-69834285D01*
X131500524Y-69881904D01*
X131595762Y-69977142D01*
X131643381Y-70120000D01*
X131643381Y-70358095D01*
X131326000Y-85851904D02*
X131278381Y-85947142D01*
X131278381Y-86089999D01*
X131326000Y-86232857D01*
X131421238Y-86328095D01*
X131516476Y-86375714D01*
X131706952Y-86423333D01*
X131849810Y-86423333D01*
X132040286Y-86375714D01*
X132135524Y-86328095D01*
X132230762Y-86232857D01*
X132278381Y-86089999D01*
X132278381Y-85994761D01*
X132230762Y-85851904D01*
X132183143Y-85804285D01*
X131849810Y-85804285D01*
X131849810Y-85994761D01*
X132278381Y-85375714D02*
X131278381Y-85375714D01*
X132278381Y-84804285D01*
X131278381Y-84804285D01*
X132278381Y-84328095D02*
X131278381Y-84328095D01*
X131278381Y-84090000D01*
X131326000Y-83947142D01*
X131421238Y-83851904D01*
X131516476Y-83804285D01*
X131706952Y-83756666D01*
X131849810Y-83756666D01*
X132040286Y-83804285D01*
X132135524Y-83851904D01*
X132230762Y-83947142D01*
X132278381Y-84090000D01*
X132278381Y-84328095D01*
D11*
X135382000Y-87376000D02*
X137287000Y-87376000D01*
D12*
X134850381Y-88717381D02*
X134850381Y-87717381D01*
X135231334Y-87717381D01*
X135326572Y-87765000D01*
X135374191Y-87812619D01*
X135421810Y-87907857D01*
X135421810Y-88050714D01*
X135374191Y-88145952D01*
X135326572Y-88193571D01*
X135231334Y-88241190D01*
X134850381Y-88241190D01*
X136183715Y-88193571D02*
X136326572Y-88241190D01*
X136374191Y-88288810D01*
X136421810Y-88384048D01*
X136421810Y-88526905D01*
X136374191Y-88622143D01*
X136326572Y-88669762D01*
X136231334Y-88717381D01*
X135850381Y-88717381D01*
X135850381Y-87717381D01*
X136183715Y-87717381D01*
X136278953Y-87765000D01*
X136326572Y-87812619D01*
X136374191Y-87907857D01*
X136374191Y-88003095D01*
X136326572Y-88098333D01*
X136278953Y-88145952D01*
X136183715Y-88193571D01*
X135850381Y-88193571D01*
X136707524Y-87717381D02*
X137278953Y-87717381D01*
X136993238Y-88717381D02*
X136993238Y-87717381D01*
X138088477Y-88717381D02*
X137612286Y-88717381D01*
X137612286Y-87717381D01*
X136294762Y-95210095D02*
X136342381Y-95067238D01*
X136342381Y-94829142D01*
X136294762Y-94733904D01*
X136247143Y-94686285D01*
X136151905Y-94638666D01*
X136056667Y-94638666D01*
X135961429Y-94686285D01*
X135913810Y-94733904D01*
X135866190Y-94829142D01*
X135818571Y-95019619D01*
X135770952Y-95114857D01*
X135723333Y-95162476D01*
X135628095Y-95210095D01*
X135532857Y-95210095D01*
X135437619Y-95162476D01*
X135390000Y-95114857D01*
X135342381Y-95019619D01*
X135342381Y-94781523D01*
X135390000Y-94638666D01*
X135866190Y-94019619D02*
X136342381Y-94019619D01*
X135342381Y-94352952D02*
X135866190Y-94019619D01*
X135342381Y-93686285D01*
X136342381Y-93352952D02*
X135342381Y-93352952D01*
X136342381Y-92781523D01*
X135342381Y-92781523D01*
X136247143Y-91733904D02*
X136294762Y-91781523D01*
X136342381Y-91924380D01*
X136342381Y-92019618D01*
X136294762Y-92162476D01*
X136199524Y-92257714D01*
X136104286Y-92305333D01*
X135913810Y-92352952D01*
X135770952Y-92352952D01*
X135580476Y-92305333D01*
X135485238Y-92257714D01*
X135390000Y-92162476D01*
X135342381Y-92019618D01*
X135342381Y-91924380D01*
X135390000Y-91781523D01*
X135437619Y-91733904D01*
X133802381Y-95162476D02*
X132802381Y-95162476D01*
X133516667Y-94829142D01*
X132802381Y-94495809D01*
X133802381Y-94495809D01*
X132802381Y-94019619D02*
X133611905Y-94019619D01*
X133707143Y-93972000D01*
X133754762Y-93924381D01*
X133802381Y-93829143D01*
X133802381Y-93638666D01*
X133754762Y-93543428D01*
X133707143Y-93495809D01*
X133611905Y-93448190D01*
X132802381Y-93448190D01*
X132802381Y-93114857D02*
X132802381Y-92543428D01*
X133802381Y-92829143D02*
X132802381Y-92829143D01*
X133278571Y-92210095D02*
X133278571Y-91876761D01*
X133802381Y-91733904D02*
X133802381Y-92210095D01*
X132802381Y-92210095D01*
X132802381Y-91733904D01*
X127738286Y-90241429D02*
X128500191Y-90241429D01*
X129452572Y-90622381D02*
X128976381Y-90622381D01*
X128976381Y-89622381D01*
X127738286Y-87701429D02*
X128500191Y-87701429D01*
X128119239Y-88082381D02*
X128119239Y-87320476D01*
X129452572Y-88082381D02*
X128976381Y-88082381D01*
X128976381Y-87082381D01*
X133405571Y-60396238D02*
X133405571Y-60729572D01*
X133929381Y-60729572D02*
X132929381Y-60729572D01*
X132929381Y-60253381D01*
X133643667Y-59920048D02*
X133643667Y-59443857D01*
X133929381Y-60015286D02*
X132929381Y-59681953D01*
X133929381Y-59348619D01*
X132929381Y-59015286D02*
X133738905Y-59015286D01*
X133834143Y-58967667D01*
X133881762Y-58920048D01*
X133929381Y-58824810D01*
X133929381Y-58634333D01*
X133881762Y-58539095D01*
X133834143Y-58491476D01*
X133738905Y-58443857D01*
X132929381Y-58443857D01*
X133929381Y-57491476D02*
X133929381Y-57967667D01*
X132929381Y-57967667D01*
X132929381Y-57301000D02*
X132929381Y-56729571D01*
X133929381Y-57015286D02*
X132929381Y-57015286D01*
X127516048Y-64968429D02*
X128277953Y-64968429D01*
X129325572Y-65349381D02*
X128992238Y-64873190D01*
X128754143Y-65349381D02*
X128754143Y-64349381D01*
X129135096Y-64349381D01*
X129230334Y-64397000D01*
X129277953Y-64444619D01*
X129325572Y-64539857D01*
X129325572Y-64682714D01*
X129277953Y-64777952D01*
X129230334Y-64825571D01*
X129135096Y-64873190D01*
X128754143Y-64873190D01*
X127516048Y-62428429D02*
X128277953Y-62428429D01*
X127897001Y-62809381D02*
X127897001Y-62047476D01*
X129325572Y-62809381D02*
X128992238Y-62333190D01*
X128754143Y-62809381D02*
X128754143Y-61809381D01*
X129135096Y-61809381D01*
X129230334Y-61857000D01*
X129277953Y-61904619D01*
X129325572Y-61999857D01*
X129325572Y-62142714D01*
X129277953Y-62237952D01*
X129230334Y-62285571D01*
X129135096Y-62333190D01*
X128754143Y-62333190D01*
X130286238Y-54300429D02*
X131048143Y-54300429D01*
X130667191Y-54681381D02*
X130667191Y-53919476D01*
X131524333Y-53681381D02*
X131524333Y-54490905D01*
X131571952Y-54586143D01*
X131619571Y-54633762D01*
X131714809Y-54681381D01*
X131905286Y-54681381D01*
X132000524Y-54633762D01*
X132048143Y-54586143D01*
X132095762Y-54490905D01*
X132095762Y-53681381D01*
D11*
X137897699Y-53975000D02*
G75*
G03X137897699Y-53975000I-2642699J0D01*
G01*
X138002430Y-98425000D02*
G75*
G03X138002430Y-98425000I-2747430J0D01*
G01*
D12*
X130048096Y-97925000D02*
X129952858Y-97877381D01*
X129810001Y-97877381D01*
X129667143Y-97925000D01*
X129571905Y-98020238D01*
X129524286Y-98115476D01*
X129476667Y-98305952D01*
X129476667Y-98448810D01*
X129524286Y-98639286D01*
X129571905Y-98734524D01*
X129667143Y-98829762D01*
X129810001Y-98877381D01*
X129905239Y-98877381D01*
X130048096Y-98829762D01*
X130095715Y-98782143D01*
X130095715Y-98448810D01*
X129905239Y-98448810D01*
X130524286Y-98877381D02*
X130524286Y-97877381D01*
X131095715Y-98877381D01*
X131095715Y-97877381D01*
X131571905Y-98877381D02*
X131571905Y-97877381D01*
X131810000Y-97877381D01*
X131952858Y-97925000D01*
X132048096Y-98020238D01*
X132095715Y-98115476D01*
X132143334Y-98305952D01*
X132143334Y-98448810D01*
X132095715Y-98639286D01*
X132048096Y-98734524D01*
X131952858Y-98829762D01*
X131810000Y-98877381D01*
X131571905Y-98877381D01*
D13*
X142800000Y-81750000D02*
X142800000Y-70650000D01*
X142800000Y-70650000D02*
X136600000Y-70650000D01*
X136600000Y-70650000D02*
X136600000Y-81750000D01*
X136600000Y-81750000D02*
X142800000Y-81750000D01*
X137559981Y-71336000D02*
G75*
G03X137559981Y-71336000I-283981J0D01*
G01*
D12*
X153865654Y-60784740D02*
G75*
G03X153865654Y-60784740I-391234J0D01*
G01*
X160474660Y-61084460D02*
X160576260Y-61186060D01*
X160576260Y-61186060D02*
X160675320Y-61584840D01*
X160675320Y-61584840D02*
X160576260Y-62085220D01*
X160576260Y-62085220D02*
X160375600Y-62384940D01*
X160375600Y-62384940D02*
X160075880Y-62786260D01*
X160075880Y-62786260D02*
X159575500Y-62885320D01*
X159575500Y-62885320D02*
X159075120Y-62786260D01*
X159075120Y-62786260D02*
X158673800Y-62484000D01*
X158673800Y-62484000D02*
X158574740Y-62384940D01*
X158574740Y-62384940D02*
X157975300Y-62786260D01*
X157975300Y-62786260D02*
X157175200Y-63085980D01*
X157175200Y-63085980D02*
X156174440Y-63284100D01*
X156174440Y-63284100D02*
X154975560Y-63284100D01*
X154975560Y-63284100D02*
X154073860Y-63085980D01*
X154073860Y-63085980D02*
X153474420Y-62885320D01*
X153474420Y-62885320D02*
X152974040Y-62684660D01*
X152974040Y-62684660D02*
X152575260Y-62484000D01*
X152575260Y-62484000D02*
X152275540Y-62684660D01*
X152275540Y-62684660D02*
X151676100Y-62885320D01*
X151676100Y-62885320D02*
X151274780Y-62786260D01*
X151274780Y-62786260D02*
X150975060Y-62585600D01*
X150975060Y-62585600D02*
X150675340Y-62384940D01*
X150675340Y-62384940D02*
X150474680Y-61884560D01*
X150474680Y-61884560D02*
X150573740Y-61384180D01*
X150573740Y-61384180D02*
X150774400Y-60985400D01*
X160474660Y-54485540D02*
X160576260Y-54185820D01*
X160576260Y-54185820D02*
X160675320Y-53784500D01*
X160675320Y-53784500D02*
X160576260Y-53484780D01*
X160576260Y-53484780D02*
X160375600Y-53086000D01*
X160375600Y-53086000D02*
X160075880Y-52885340D01*
X160075880Y-52885340D02*
X159776160Y-52684680D01*
X159776160Y-52684680D02*
X159473900Y-52684680D01*
X159473900Y-52684680D02*
X159174180Y-52783740D01*
X159174180Y-52783740D02*
X158874460Y-52885340D01*
X158874460Y-52885340D02*
X158574740Y-53185060D01*
X158574740Y-53185060D02*
X158175960Y-52885340D01*
X158175960Y-52885340D02*
X157774640Y-52684680D01*
X157774640Y-52684680D02*
X157274260Y-52484020D01*
X157274260Y-52484020D02*
X156474160Y-52285900D01*
X156474160Y-52285900D02*
X155575000Y-52184300D01*
X155575000Y-52184300D02*
X154774900Y-52285900D01*
X154774900Y-52285900D02*
X153875740Y-52484020D01*
X153875740Y-52484020D02*
X152974040Y-52885340D01*
X152974040Y-52885340D02*
X152575260Y-53086000D01*
X152575260Y-53086000D02*
X152275540Y-52885340D01*
X152275540Y-52885340D02*
X151874220Y-52684680D01*
X151874220Y-52684680D02*
X151373840Y-52783740D01*
X151373840Y-52783740D02*
X150975060Y-52984400D01*
X150975060Y-52984400D02*
X150675340Y-53284120D01*
X150675340Y-53284120D02*
X150474680Y-53784500D01*
X150474680Y-53784500D02*
X150573740Y-54284880D01*
X150573740Y-54284880D02*
X150774400Y-54584600D01*
X149374860Y-61084460D02*
X149374860Y-63985140D01*
X149374860Y-63985140D02*
X161775140Y-63985140D01*
X161775140Y-63985140D02*
X161775140Y-61084460D01*
X161775140Y-51584860D02*
X149374860Y-51584860D01*
X149374860Y-51584860D02*
X149374860Y-54485540D01*
X161775140Y-51584860D02*
X161775140Y-54485540D01*
X171401814Y-66215260D02*
G75*
G03X171401814Y-66215260I-391234J0D01*
G01*
X164010340Y-65915540D02*
X163908740Y-65813940D01*
X163908740Y-65813940D02*
X163809680Y-65415160D01*
X163809680Y-65415160D02*
X163908740Y-64914780D01*
X163908740Y-64914780D02*
X164109400Y-64615060D01*
X164109400Y-64615060D02*
X164409120Y-64213740D01*
X164409120Y-64213740D02*
X164909500Y-64114680D01*
X164909500Y-64114680D02*
X165409880Y-64213740D01*
X165409880Y-64213740D02*
X165811200Y-64516000D01*
X165811200Y-64516000D02*
X165910260Y-64615060D01*
X165910260Y-64615060D02*
X166509700Y-64213740D01*
X166509700Y-64213740D02*
X167309800Y-63914020D01*
X167309800Y-63914020D02*
X168310560Y-63715900D01*
X168310560Y-63715900D02*
X169509440Y-63715900D01*
X169509440Y-63715900D02*
X170411140Y-63914020D01*
X170411140Y-63914020D02*
X171010580Y-64114680D01*
X171010580Y-64114680D02*
X171510960Y-64315340D01*
X171510960Y-64315340D02*
X171909740Y-64516000D01*
X171909740Y-64516000D02*
X172209460Y-64315340D01*
X172209460Y-64315340D02*
X172808900Y-64114680D01*
X172808900Y-64114680D02*
X173210220Y-64213740D01*
X173210220Y-64213740D02*
X173509940Y-64414400D01*
X173509940Y-64414400D02*
X173809660Y-64615060D01*
X173809660Y-64615060D02*
X174010320Y-65115440D01*
X174010320Y-65115440D02*
X173911260Y-65615820D01*
X173911260Y-65615820D02*
X173710600Y-66014600D01*
X164010340Y-72514460D02*
X163908740Y-72814180D01*
X163908740Y-72814180D02*
X163809680Y-73215500D01*
X163809680Y-73215500D02*
X163908740Y-73515220D01*
X163908740Y-73515220D02*
X164109400Y-73914000D01*
X164109400Y-73914000D02*
X164409120Y-74114660D01*
X164409120Y-74114660D02*
X164708840Y-74315320D01*
X164708840Y-74315320D02*
X165011100Y-74315320D01*
X165011100Y-74315320D02*
X165310820Y-74216260D01*
X165310820Y-74216260D02*
X165610540Y-74114660D01*
X165610540Y-74114660D02*
X165910260Y-73814940D01*
X165910260Y-73814940D02*
X166309040Y-74114660D01*
X166309040Y-74114660D02*
X166710360Y-74315320D01*
X166710360Y-74315320D02*
X167210740Y-74515980D01*
X167210740Y-74515980D02*
X168010840Y-74714100D01*
X168010840Y-74714100D02*
X168910000Y-74815700D01*
X168910000Y-74815700D02*
X169710100Y-74714100D01*
X169710100Y-74714100D02*
X170609260Y-74515980D01*
X170609260Y-74515980D02*
X171510960Y-74114660D01*
X171510960Y-74114660D02*
X171909740Y-73914000D01*
X171909740Y-73914000D02*
X172209460Y-74114660D01*
X172209460Y-74114660D02*
X172610780Y-74315320D01*
X172610780Y-74315320D02*
X173111160Y-74216260D01*
X173111160Y-74216260D02*
X173509940Y-74015600D01*
X173509940Y-74015600D02*
X173809660Y-73715880D01*
X173809660Y-73715880D02*
X174010320Y-73215500D01*
X174010320Y-73215500D02*
X173911260Y-72715120D01*
X173911260Y-72715120D02*
X173710600Y-72415400D01*
X175110140Y-65915540D02*
X175110140Y-63014860D01*
X175110140Y-63014860D02*
X162709860Y-63014860D01*
X162709860Y-63014860D02*
X162709860Y-65915540D01*
X162709860Y-75415140D02*
X175110140Y-75415140D01*
X175110140Y-75415140D02*
X175110140Y-72514460D01*
X162709860Y-75415140D02*
X162709860Y-72514460D01*
X167200654Y-86184740D02*
G75*
G03X167200654Y-86184740I-391234J0D01*
G01*
X173809660Y-86484460D02*
X173911260Y-86586060D01*
X173911260Y-86586060D02*
X174010320Y-86984840D01*
X174010320Y-86984840D02*
X173911260Y-87485220D01*
X173911260Y-87485220D02*
X173710600Y-87784940D01*
X173710600Y-87784940D02*
X173410880Y-88186260D01*
X173410880Y-88186260D02*
X172910500Y-88285320D01*
X172910500Y-88285320D02*
X172410120Y-88186260D01*
X172410120Y-88186260D02*
X172008800Y-87884000D01*
X172008800Y-87884000D02*
X171909740Y-87784940D01*
X171909740Y-87784940D02*
X171310300Y-88186260D01*
X171310300Y-88186260D02*
X170510200Y-88485980D01*
X170510200Y-88485980D02*
X169509440Y-88684100D01*
X169509440Y-88684100D02*
X168310560Y-88684100D01*
X168310560Y-88684100D02*
X167408860Y-88485980D01*
X167408860Y-88485980D02*
X166809420Y-88285320D01*
X166809420Y-88285320D02*
X166309040Y-88084660D01*
X166309040Y-88084660D02*
X165910260Y-87884000D01*
X165910260Y-87884000D02*
X165610540Y-88084660D01*
X165610540Y-88084660D02*
X165011100Y-88285320D01*
X165011100Y-88285320D02*
X164609780Y-88186260D01*
X164609780Y-88186260D02*
X164310060Y-87985600D01*
X164310060Y-87985600D02*
X164010340Y-87784940D01*
X164010340Y-87784940D02*
X163809680Y-87284560D01*
X163809680Y-87284560D02*
X163908740Y-86784180D01*
X163908740Y-86784180D02*
X164109400Y-86385400D01*
X173809660Y-79885540D02*
X173911260Y-79585820D01*
X173911260Y-79585820D02*
X174010320Y-79184500D01*
X174010320Y-79184500D02*
X173911260Y-78884780D01*
X173911260Y-78884780D02*
X173710600Y-78486000D01*
X173710600Y-78486000D02*
X173410880Y-78285340D01*
X173410880Y-78285340D02*
X173111160Y-78084680D01*
X173111160Y-78084680D02*
X172808900Y-78084680D01*
X172808900Y-78084680D02*
X172509180Y-78183740D01*
X172509180Y-78183740D02*
X172209460Y-78285340D01*
X172209460Y-78285340D02*
X171909740Y-78585060D01*
X171909740Y-78585060D02*
X171510960Y-78285340D01*
X171510960Y-78285340D02*
X171109640Y-78084680D01*
X171109640Y-78084680D02*
X170609260Y-77884020D01*
X170609260Y-77884020D02*
X169809160Y-77685900D01*
X169809160Y-77685900D02*
X168910000Y-77584300D01*
X168910000Y-77584300D02*
X168109900Y-77685900D01*
X168109900Y-77685900D02*
X167210740Y-77884020D01*
X167210740Y-77884020D02*
X166309040Y-78285340D01*
X166309040Y-78285340D02*
X165910260Y-78486000D01*
X165910260Y-78486000D02*
X165610540Y-78285340D01*
X165610540Y-78285340D02*
X165209220Y-78084680D01*
X165209220Y-78084680D02*
X164708840Y-78183740D01*
X164708840Y-78183740D02*
X164310060Y-78384400D01*
X164310060Y-78384400D02*
X164010340Y-78684120D01*
X164010340Y-78684120D02*
X163809680Y-79184500D01*
X163809680Y-79184500D02*
X163908740Y-79684880D01*
X163908740Y-79684880D02*
X164109400Y-79984600D01*
X162709860Y-86484460D02*
X162709860Y-89385140D01*
X162709860Y-89385140D02*
X175110140Y-89385140D01*
X175110140Y-89385140D02*
X175110140Y-86484460D01*
X175110140Y-76984860D02*
X162709860Y-76984860D01*
X162709860Y-76984860D02*
X162709860Y-79885540D01*
X175110140Y-76984860D02*
X175110140Y-79885540D01*
X158066814Y-91615260D02*
G75*
G03X158066814Y-91615260I-391234J0D01*
G01*
X150675340Y-91315540D02*
X150573740Y-91213940D01*
X150573740Y-91213940D02*
X150474680Y-90815160D01*
X150474680Y-90815160D02*
X150573740Y-90314780D01*
X150573740Y-90314780D02*
X150774400Y-90015060D01*
X150774400Y-90015060D02*
X151074120Y-89613740D01*
X151074120Y-89613740D02*
X151574500Y-89514680D01*
X151574500Y-89514680D02*
X152074880Y-89613740D01*
X152074880Y-89613740D02*
X152476200Y-89916000D01*
X152476200Y-89916000D02*
X152575260Y-90015060D01*
X152575260Y-90015060D02*
X153174700Y-89613740D01*
X153174700Y-89613740D02*
X153974800Y-89314020D01*
X153974800Y-89314020D02*
X154975560Y-89115900D01*
X154975560Y-89115900D02*
X156174440Y-89115900D01*
X156174440Y-89115900D02*
X157076140Y-89314020D01*
X157076140Y-89314020D02*
X157675580Y-89514680D01*
X157675580Y-89514680D02*
X158175960Y-89715340D01*
X158175960Y-89715340D02*
X158574740Y-89916000D01*
X158574740Y-89916000D02*
X158874460Y-89715340D01*
X158874460Y-89715340D02*
X159473900Y-89514680D01*
X159473900Y-89514680D02*
X159875220Y-89613740D01*
X159875220Y-89613740D02*
X160174940Y-89814400D01*
X160174940Y-89814400D02*
X160474660Y-90015060D01*
X160474660Y-90015060D02*
X160675320Y-90515440D01*
X160675320Y-90515440D02*
X160576260Y-91015820D01*
X160576260Y-91015820D02*
X160375600Y-91414600D01*
X150675340Y-97914460D02*
X150573740Y-98214180D01*
X150573740Y-98214180D02*
X150474680Y-98615500D01*
X150474680Y-98615500D02*
X150573740Y-98915220D01*
X150573740Y-98915220D02*
X150774400Y-99314000D01*
X150774400Y-99314000D02*
X151074120Y-99514660D01*
X151074120Y-99514660D02*
X151373840Y-99715320D01*
X151373840Y-99715320D02*
X151676100Y-99715320D01*
X151676100Y-99715320D02*
X151975820Y-99616260D01*
X151975820Y-99616260D02*
X152275540Y-99514660D01*
X152275540Y-99514660D02*
X152575260Y-99214940D01*
X152575260Y-99214940D02*
X152974040Y-99514660D01*
X152974040Y-99514660D02*
X153375360Y-99715320D01*
X153375360Y-99715320D02*
X153875740Y-99915980D01*
X153875740Y-99915980D02*
X154675840Y-100114100D01*
X154675840Y-100114100D02*
X155575000Y-100215700D01*
X155575000Y-100215700D02*
X156375100Y-100114100D01*
X156375100Y-100114100D02*
X157274260Y-99915980D01*
X157274260Y-99915980D02*
X158175960Y-99514660D01*
X158175960Y-99514660D02*
X158574740Y-99314000D01*
X158574740Y-99314000D02*
X158874460Y-99514660D01*
X158874460Y-99514660D02*
X159275780Y-99715320D01*
X159275780Y-99715320D02*
X159776160Y-99616260D01*
X159776160Y-99616260D02*
X160174940Y-99415600D01*
X160174940Y-99415600D02*
X160474660Y-99115880D01*
X160474660Y-99115880D02*
X160675320Y-98615500D01*
X160675320Y-98615500D02*
X160576260Y-98115120D01*
X160576260Y-98115120D02*
X160375600Y-97815400D01*
X161775140Y-91315540D02*
X161775140Y-88414860D01*
X161775140Y-88414860D02*
X149374860Y-88414860D01*
X149374860Y-88414860D02*
X149374860Y-91315540D01*
X149374860Y-100815140D02*
X161775140Y-100815140D01*
X161775140Y-100815140D02*
X161775140Y-97914460D01*
X149374860Y-100815140D02*
X149374860Y-97914460D01*
D13*
X138201400Y-64846200D02*
X137388600Y-64846200D01*
X137414000Y-65963800D02*
X138201400Y-65963800D01*
X137388600Y-66217800D02*
X137388600Y-64592200D01*
X137388600Y-64592200D02*
X138201400Y-64592200D01*
X138201400Y-64592200D02*
X138201400Y-66217800D01*
X138201400Y-66217800D02*
X137388600Y-66217800D01*
X165506400Y-54051200D02*
X164693600Y-54051200D01*
X164719000Y-55168800D02*
X165506400Y-55168800D01*
X164693600Y-55422800D02*
X164693600Y-53797200D01*
X164693600Y-53797200D02*
X165506400Y-53797200D01*
X165506400Y-53797200D02*
X165506400Y-55422800D01*
X165506400Y-55422800D02*
X164693600Y-55422800D01*
X159613600Y-67233800D02*
X160426400Y-67233800D01*
X160401000Y-66116200D02*
X159613600Y-66116200D01*
X160426400Y-65862200D02*
X160426400Y-67487800D01*
X160426400Y-67487800D02*
X159613600Y-67487800D01*
X159613600Y-67487800D02*
X159613600Y-65862200D01*
X159613600Y-65862200D02*
X160426400Y-65862200D01*
X131521200Y-74523600D02*
X131521200Y-75336400D01*
X132638800Y-75311000D02*
X132638800Y-74523600D01*
X132892800Y-75336400D02*
X131267200Y-75336400D01*
X131267200Y-75336400D02*
X131267200Y-74523600D01*
X131267200Y-74523600D02*
X132892800Y-74523600D01*
X132892800Y-74523600D02*
X132892800Y-75336400D01*
X155346400Y-66116200D02*
X154533600Y-66116200D01*
X154559000Y-67233800D02*
X155346400Y-67233800D01*
X154533600Y-67487800D02*
X154533600Y-65862200D01*
X154533600Y-65862200D02*
X155346400Y-65862200D01*
X155346400Y-65862200D02*
X155346400Y-67487800D01*
X155346400Y-67487800D02*
X154533600Y-67487800D01*
X160426400Y-85166200D02*
X159613600Y-85166200D01*
X159639000Y-86283800D02*
X160426400Y-86283800D01*
X159613600Y-86537800D02*
X159613600Y-84912200D01*
X159613600Y-84912200D02*
X160426400Y-84912200D01*
X160426400Y-84912200D02*
X160426400Y-86537800D01*
X160426400Y-86537800D02*
X159613600Y-86537800D01*
X132638800Y-77241400D02*
X132638800Y-76428600D01*
X131521200Y-76454000D02*
X131521200Y-77241400D01*
X131267200Y-76428600D02*
X132892800Y-76428600D01*
X132892800Y-76428600D02*
X132892800Y-77241400D01*
X132892800Y-77241400D02*
X131267200Y-77241400D01*
X131267200Y-77241400D02*
X131267200Y-76428600D01*
X154533600Y-86283800D02*
X155346400Y-86283800D01*
X155321000Y-85166200D02*
X154533600Y-85166200D01*
X155346400Y-84912200D02*
X155346400Y-86537800D01*
X155346400Y-86537800D02*
X154533600Y-86537800D01*
X154533600Y-86537800D02*
X154533600Y-84912200D01*
X154533600Y-84912200D02*
X155346400Y-84912200D01*
X169773600Y-98348800D02*
X170586400Y-98348800D01*
X170561000Y-97231200D02*
X169773600Y-97231200D01*
X170586400Y-96977200D02*
X170586400Y-98602800D01*
X170586400Y-98602800D02*
X169773600Y-98602800D01*
X169773600Y-98602800D02*
X169773600Y-96977200D01*
X169773600Y-96977200D02*
X170586400Y-96977200D01*
X164693600Y-98348800D02*
X165506400Y-98348800D01*
X165481000Y-97231200D02*
X164693600Y-97231200D01*
X165506400Y-96977200D02*
X165506400Y-98602800D01*
X165506400Y-98602800D02*
X164693600Y-98602800D01*
X164693600Y-98602800D02*
X164693600Y-96977200D01*
X164693600Y-96977200D02*
X165506400Y-96977200D01*
X138658600Y-85648800D02*
X139471400Y-85648800D01*
X139446000Y-84531200D02*
X138658600Y-84531200D01*
X139471400Y-84277200D02*
X139471400Y-85902800D01*
X139471400Y-85902800D02*
X138658600Y-85902800D01*
X138658600Y-85902800D02*
X138658600Y-84277200D01*
X138658600Y-84277200D02*
X139471400Y-84277200D01*
X141376400Y-84531200D02*
X140563600Y-84531200D01*
X140589000Y-85648800D02*
X141376400Y-85648800D01*
X140563600Y-85902800D02*
X140563600Y-84277200D01*
X140563600Y-84277200D02*
X141376400Y-84277200D01*
X141376400Y-84277200D02*
X141376400Y-85902800D01*
X141376400Y-85902800D02*
X140563600Y-85902800D01*
D12*
X135290000Y-65755000D02*
X135290000Y-65055000D01*
X136490000Y-65055000D02*
X136490000Y-65755000D01*
D13*
X170586400Y-54051200D02*
X169773600Y-54051200D01*
X169799000Y-55168800D02*
X170586400Y-55168800D01*
X169773600Y-55422800D02*
X169773600Y-53797200D01*
X169773600Y-53797200D02*
X170586400Y-53797200D01*
X170586400Y-53797200D02*
X170586400Y-55422800D01*
X170586400Y-55422800D02*
X169773600Y-55422800D01*
X144653000Y-63042800D02*
X144653000Y-61417200D01*
X142367000Y-61417200D02*
X142367000Y-63042800D01*
X141909800Y-61417200D02*
X141909800Y-63042800D01*
X141909800Y-63042800D02*
X145110200Y-63042800D01*
X145110200Y-63042800D02*
X145110200Y-61417200D01*
X145110200Y-61417200D02*
X141909800Y-61417200D01*
X139293600Y-65963800D02*
X140106400Y-65963800D01*
X140081000Y-64846200D02*
X139293600Y-64846200D01*
X140106400Y-64592200D02*
X140106400Y-66217800D01*
X140106400Y-66217800D02*
X139293600Y-66217800D01*
X139293600Y-66217800D02*
X139293600Y-64592200D01*
X139293600Y-64592200D02*
X140106400Y-64592200D01*
D12*
X143590000Y-59879000D02*
X143590000Y-51881000D01*
X143450000Y-59874000D02*
X143450000Y-51886000D01*
X143310000Y-59864000D02*
X143310000Y-51896000D01*
X143170000Y-59849000D02*
X143170000Y-51911000D01*
X143030000Y-59829000D02*
X143030000Y-51931000D01*
X142890000Y-59804000D02*
X142890000Y-56102000D01*
X142890000Y-55658000D02*
X142890000Y-51956000D01*
X142750000Y-59774000D02*
X142750000Y-56430000D01*
X142750000Y-55330000D02*
X142750000Y-51986000D01*
X142610000Y-59738000D02*
X142610000Y-56599000D01*
X142610000Y-55161000D02*
X142610000Y-52022000D01*
X142470000Y-59697000D02*
X142470000Y-56712000D01*
X142470000Y-55048000D02*
X142470000Y-52063000D01*
X142330000Y-59651000D02*
X142330000Y-56790000D01*
X142330000Y-54970000D02*
X142330000Y-52109000D01*
X142190000Y-59598000D02*
X142190000Y-56841000D01*
X142190000Y-54919000D02*
X142190000Y-52162000D01*
X142050000Y-59539000D02*
X142050000Y-56871000D01*
X142050000Y-54889000D02*
X142050000Y-52221000D01*
X141910000Y-59474000D02*
X141910000Y-56880000D01*
X141910000Y-54880000D02*
X141910000Y-52286000D01*
X141770000Y-59403000D02*
X141770000Y-56869000D01*
X141770000Y-54891000D02*
X141770000Y-52357000D01*
X141630000Y-59324000D02*
X141630000Y-56839000D01*
X141630000Y-54921000D02*
X141630000Y-52436000D01*
X141490000Y-59237000D02*
X141490000Y-56785000D01*
X141490000Y-54975000D02*
X141490000Y-52523000D01*
X141350000Y-59142000D02*
X141350000Y-56705000D01*
X141350000Y-55055000D02*
X141350000Y-52618000D01*
X141210000Y-59038000D02*
X141210000Y-56589000D01*
X141210000Y-55171000D02*
X141210000Y-52722000D01*
X141070000Y-58924000D02*
X141070000Y-56415000D01*
X141070000Y-55345000D02*
X141070000Y-52836000D01*
X140930000Y-58799000D02*
X140930000Y-56053000D01*
X140930000Y-55707000D02*
X140930000Y-52961000D01*
X140790000Y-58661000D02*
X140790000Y-53099000D01*
X140650000Y-58509000D02*
X140650000Y-53251000D01*
X140510000Y-58339000D02*
X140510000Y-53421000D01*
X140370000Y-58148000D02*
X140370000Y-53612000D01*
X140230000Y-57930000D02*
X140230000Y-53830000D01*
X140090000Y-57674000D02*
X140090000Y-54086000D01*
X139950000Y-57363000D02*
X139950000Y-54397000D01*
X139810000Y-56947000D02*
X139810000Y-54813000D01*
X139670000Y-56080000D02*
X139670000Y-55680000D01*
X142915000Y-55880000D02*
G75*
G03X142915000Y-55880000I-1000000J0D01*
G01*
X147702500Y-55880000D02*
G75*
G03X147702500Y-55880000I-4037500J0D01*
G01*
X171205000Y-60055000D02*
X171205000Y-58055000D01*
X169155000Y-58055000D02*
X169155000Y-60055000D01*
X133385000Y-65755000D02*
X133385000Y-65055000D01*
X134585000Y-65055000D02*
X134585000Y-65755000D01*
X161045000Y-72755000D02*
X161045000Y-70755000D01*
X158995000Y-70755000D02*
X158995000Y-72755000D01*
X158995000Y-79645000D02*
X158995000Y-81645000D01*
X161045000Y-81645000D02*
X161045000Y-79645000D01*
X132045000Y-80295000D02*
X132045000Y-80995000D01*
X130845000Y-80995000D02*
X130845000Y-80295000D01*
X133950000Y-80295000D02*
X133950000Y-80995000D01*
X132750000Y-80995000D02*
X132750000Y-80295000D01*
X169155000Y-92345000D02*
X169155000Y-94345000D01*
X171205000Y-94345000D02*
X171205000Y-92345000D01*
D13*
X144653000Y-90982800D02*
X144653000Y-89357200D01*
X142367000Y-89357200D02*
X142367000Y-90982800D01*
X141909800Y-89357200D02*
X141909800Y-90982800D01*
X141909800Y-90982800D02*
X145110200Y-90982800D01*
X145110200Y-90982800D02*
X145110200Y-89357200D01*
X145110200Y-89357200D02*
X141909800Y-89357200D01*
X143281400Y-84531200D02*
X142468600Y-84531200D01*
X142494000Y-85648800D02*
X143281400Y-85648800D01*
X142468600Y-85902800D02*
X142468600Y-84277200D01*
X142468600Y-84277200D02*
X143281400Y-84277200D01*
X143281400Y-84277200D02*
X143281400Y-85902800D01*
X143281400Y-85902800D02*
X142468600Y-85902800D01*
D12*
X143590000Y-100519000D02*
X143590000Y-92521000D01*
X143450000Y-100514000D02*
X143450000Y-92526000D01*
X143310000Y-100504000D02*
X143310000Y-92536000D01*
X143170000Y-100489000D02*
X143170000Y-92551000D01*
X143030000Y-100469000D02*
X143030000Y-92571000D01*
X142890000Y-100444000D02*
X142890000Y-96742000D01*
X142890000Y-96298000D02*
X142890000Y-92596000D01*
X142750000Y-100414000D02*
X142750000Y-97070000D01*
X142750000Y-95970000D02*
X142750000Y-92626000D01*
X142610000Y-100378000D02*
X142610000Y-97239000D01*
X142610000Y-95801000D02*
X142610000Y-92662000D01*
X142470000Y-100337000D02*
X142470000Y-97352000D01*
X142470000Y-95688000D02*
X142470000Y-92703000D01*
X142330000Y-100291000D02*
X142330000Y-97430000D01*
X142330000Y-95610000D02*
X142330000Y-92749000D01*
X142190000Y-100238000D02*
X142190000Y-97481000D01*
X142190000Y-95559000D02*
X142190000Y-92802000D01*
X142050000Y-100179000D02*
X142050000Y-97511000D01*
X142050000Y-95529000D02*
X142050000Y-92861000D01*
X141910000Y-100114000D02*
X141910000Y-97520000D01*
X141910000Y-95520000D02*
X141910000Y-92926000D01*
X141770000Y-100043000D02*
X141770000Y-97509000D01*
X141770000Y-95531000D02*
X141770000Y-92997000D01*
X141630000Y-99964000D02*
X141630000Y-97479000D01*
X141630000Y-95561000D02*
X141630000Y-93076000D01*
X141490000Y-99877000D02*
X141490000Y-97425000D01*
X141490000Y-95615000D02*
X141490000Y-93163000D01*
X141350000Y-99782000D02*
X141350000Y-97345000D01*
X141350000Y-95695000D02*
X141350000Y-93258000D01*
X141210000Y-99678000D02*
X141210000Y-97229000D01*
X141210000Y-95811000D02*
X141210000Y-93362000D01*
X141070000Y-99564000D02*
X141070000Y-97055000D01*
X141070000Y-95985000D02*
X141070000Y-93476000D01*
X140930000Y-99439000D02*
X140930000Y-96693000D01*
X140930000Y-96347000D02*
X140930000Y-93601000D01*
X140790000Y-99301000D02*
X140790000Y-93739000D01*
X140650000Y-99149000D02*
X140650000Y-93891000D01*
X140510000Y-98979000D02*
X140510000Y-94061000D01*
X140370000Y-98788000D02*
X140370000Y-94252000D01*
X140230000Y-98570000D02*
X140230000Y-94470000D01*
X140090000Y-98314000D02*
X140090000Y-94726000D01*
X139950000Y-98003000D02*
X139950000Y-95037000D01*
X139810000Y-97587000D02*
X139810000Y-95453000D01*
X139670000Y-96720000D02*
X139670000Y-96320000D01*
X142915000Y-96520000D02*
G75*
G03X142915000Y-96520000I-1000000J0D01*
G01*
X147702500Y-96520000D02*
G75*
G03X147702500Y-96520000I-4037500J0D01*
G01*
X134025000Y-84590000D02*
X134025000Y-85590000D01*
X132675000Y-85590000D02*
X132675000Y-84590000D01*
X136057000Y-84590000D02*
X136057000Y-85590000D01*
X134707000Y-85590000D02*
X134707000Y-84590000D01*
X137962000Y-84590000D02*
X137962000Y-85590000D01*
X136612000Y-85590000D02*
X136612000Y-84590000D01*
D13*
X150342600Y-82473800D02*
X151155400Y-82473800D01*
X151130000Y-81356200D02*
X150342600Y-81356200D01*
X151155400Y-81102200D02*
X151155400Y-82727800D01*
X151155400Y-82727800D02*
X150342600Y-82727800D01*
X150342600Y-82727800D02*
X150342600Y-81102200D01*
X150342600Y-81102200D02*
X151155400Y-81102200D01*
X151282400Y-69926200D02*
X150469600Y-69926200D01*
X150495000Y-71043800D02*
X151282400Y-71043800D01*
X150469600Y-71297800D02*
X150469600Y-69672200D01*
X150469600Y-69672200D02*
X151282400Y-69672200D01*
X151282400Y-69672200D02*
X151282400Y-71297800D01*
X151282400Y-71297800D02*
X150469600Y-71297800D01*
X146913600Y-67233800D02*
X147726400Y-67233800D01*
X147701000Y-66116200D02*
X146913600Y-66116200D01*
X147726400Y-65862200D02*
X147726400Y-67487800D01*
X147726400Y-67487800D02*
X146913600Y-67487800D01*
X146913600Y-67487800D02*
X146913600Y-65862200D01*
X146913600Y-65862200D02*
X147726400Y-65862200D01*
X147726400Y-85166200D02*
X146913600Y-85166200D01*
X146939000Y-86283800D02*
X147726400Y-86283800D01*
X146913600Y-86537800D02*
X146913600Y-84912200D01*
X146913600Y-84912200D02*
X147726400Y-84912200D01*
X147726400Y-84912200D02*
X147726400Y-86537800D01*
X147726400Y-86537800D02*
X146913600Y-86537800D01*
X157886400Y-66116200D02*
X157073600Y-66116200D01*
X157099000Y-67233800D02*
X157886400Y-67233800D01*
X157073600Y-67487800D02*
X157073600Y-65862200D01*
X157073600Y-65862200D02*
X157886400Y-65862200D01*
X157886400Y-65862200D02*
X157886400Y-67487800D01*
X157886400Y-67487800D02*
X157073600Y-67487800D01*
X157886400Y-71196200D02*
X157073600Y-71196200D01*
X157099000Y-72313800D02*
X157886400Y-72313800D01*
X157073600Y-72567800D02*
X157073600Y-70942200D01*
X157073600Y-70942200D02*
X157886400Y-70942200D01*
X157886400Y-70942200D02*
X157886400Y-72567800D01*
X157886400Y-72567800D02*
X157073600Y-72567800D01*
X157073600Y-81203800D02*
X157886400Y-81203800D01*
X157861000Y-80086200D02*
X157073600Y-80086200D01*
X157886400Y-79832200D02*
X157886400Y-81457800D01*
X157886400Y-81457800D02*
X157073600Y-81457800D01*
X157073600Y-81457800D02*
X157073600Y-79832200D01*
X157073600Y-79832200D02*
X157886400Y-79832200D01*
X157073600Y-86283800D02*
X157886400Y-86283800D01*
X157861000Y-85166200D02*
X157073600Y-85166200D01*
X157886400Y-84912200D02*
X157886400Y-86537800D01*
X157886400Y-86537800D02*
X157073600Y-86537800D01*
X157073600Y-86537800D02*
X157073600Y-84912200D01*
X157073600Y-84912200D02*
X157886400Y-84912200D01*
X168046400Y-54051200D02*
X167233600Y-54051200D01*
X167259000Y-55168800D02*
X168046400Y-55168800D01*
X167233600Y-55422800D02*
X167233600Y-53797200D01*
X167233600Y-53797200D02*
X168046400Y-53797200D01*
X168046400Y-53797200D02*
X168046400Y-55422800D01*
X168046400Y-55422800D02*
X167233600Y-55422800D01*
X167233600Y-98348800D02*
X168046400Y-98348800D01*
X168021000Y-97231200D02*
X167233600Y-97231200D01*
X168046400Y-96977200D02*
X168046400Y-98602800D01*
X168046400Y-98602800D02*
X167233600Y-98602800D01*
X167233600Y-98602800D02*
X167233600Y-96977200D01*
X167233600Y-96977200D02*
X168046400Y-96977200D01*
X164693600Y-93268800D02*
X165506400Y-93268800D01*
X165481000Y-92151200D02*
X164693600Y-92151200D01*
X165506400Y-91897200D02*
X165506400Y-93522800D01*
X165506400Y-93522800D02*
X164693600Y-93522800D01*
X164693600Y-93522800D02*
X164693600Y-91897200D01*
X164693600Y-91897200D02*
X165506400Y-91897200D01*
X165506400Y-59131200D02*
X164693600Y-59131200D01*
X164719000Y-60248800D02*
X165506400Y-60248800D01*
X164693600Y-60502800D02*
X164693600Y-58877200D01*
X164693600Y-58877200D02*
X165506400Y-58877200D01*
X165506400Y-58877200D02*
X165506400Y-60502800D01*
X165506400Y-60502800D02*
X164693600Y-60502800D01*
D12*
X133390000Y-70620000D02*
X133390000Y-71620000D01*
X132040000Y-71620000D02*
X132040000Y-70620000D01*
D13*
X129133600Y-71678800D02*
X129946400Y-71678800D01*
X129921000Y-70561200D02*
X129133600Y-70561200D01*
X129946400Y-70307200D02*
X129946400Y-71932800D01*
X129946400Y-71932800D02*
X129133600Y-71932800D01*
X129133600Y-71932800D02*
X129133600Y-70307200D01*
X129133600Y-70307200D02*
X129946400Y-70307200D01*
D14*
X139989862Y-70219328D02*
X139489482Y-70219328D01*
X139489482Y-70100190D01*
X139513310Y-70028707D01*
X139560965Y-69981052D01*
X139608620Y-69957224D01*
X139703931Y-69933396D01*
X139775414Y-69933396D01*
X139870724Y-69957224D01*
X139918380Y-69981052D01*
X139966035Y-70028707D01*
X139989862Y-70100190D01*
X139989862Y-70219328D01*
X139989862Y-69456844D02*
X139989862Y-69742776D01*
X139989862Y-69599810D02*
X139489482Y-69599810D01*
X139560965Y-69647465D01*
X139608620Y-69695120D01*
X139632448Y-69742776D01*
D12*
X147915334Y-63190381D02*
X147439143Y-63190381D01*
X147439143Y-62190381D01*
X148772477Y-63190381D02*
X148201048Y-63190381D01*
X148486762Y-63190381D02*
X148486762Y-62190381D01*
X148391524Y-62333238D01*
X148296286Y-62428476D01*
X148201048Y-62476095D01*
X161504334Y-87828381D02*
X161028143Y-87828381D01*
X161028143Y-86828381D01*
X161790048Y-86923619D02*
X161837667Y-86876000D01*
X161932905Y-86828381D01*
X162171001Y-86828381D01*
X162266239Y-86876000D01*
X162313858Y-86923619D01*
X162361477Y-87018857D01*
X162361477Y-87114095D01*
X162313858Y-87256952D01*
X161742429Y-87828381D01*
X162361477Y-87828381D01*
X161504334Y-65476381D02*
X161028143Y-65476381D01*
X161028143Y-64476381D01*
X161742429Y-64476381D02*
X162361477Y-64476381D01*
X162028143Y-64857333D01*
X162171001Y-64857333D01*
X162266239Y-64904952D01*
X162313858Y-64952571D01*
X162361477Y-65047810D01*
X162361477Y-65285905D01*
X162313858Y-65381143D01*
X162266239Y-65428762D01*
X162171001Y-65476381D01*
X161885286Y-65476381D01*
X161790048Y-65428762D01*
X161742429Y-65381143D01*
X147915334Y-89987381D02*
X147439143Y-89987381D01*
X147439143Y-88987381D01*
X148677239Y-89320714D02*
X148677239Y-89987381D01*
X148439143Y-88939762D02*
X148201048Y-89654048D01*
X148820096Y-89654048D01*
X138247381Y-68111666D02*
X137771190Y-68445000D01*
X138247381Y-68683095D02*
X137247381Y-68683095D01*
X137247381Y-68302142D01*
X137295000Y-68206904D01*
X137342619Y-68159285D01*
X137437857Y-68111666D01*
X137580714Y-68111666D01*
X137675952Y-68159285D01*
X137723571Y-68206904D01*
X137771190Y-68302142D01*
X137771190Y-68683095D01*
X138247381Y-67159285D02*
X138247381Y-67730714D01*
X138247381Y-67445000D02*
X137247381Y-67445000D01*
X137390238Y-67540238D01*
X137485476Y-67635476D01*
X137533095Y-67730714D01*
X165552381Y-52236666D02*
X165076190Y-52570000D01*
X165552381Y-52808095D02*
X164552381Y-52808095D01*
X164552381Y-52427142D01*
X164600000Y-52331904D01*
X164647619Y-52284285D01*
X164742857Y-52236666D01*
X164885714Y-52236666D01*
X164980952Y-52284285D01*
X165028571Y-52331904D01*
X165076190Y-52427142D01*
X165076190Y-52808095D01*
X164552381Y-51903333D02*
X164552381Y-51284285D01*
X164933333Y-51617619D01*
X164933333Y-51474761D01*
X164980952Y-51379523D01*
X165028571Y-51331904D01*
X165123810Y-51284285D01*
X165361905Y-51284285D01*
X165457143Y-51331904D01*
X165504762Y-51379523D01*
X165552381Y-51474761D01*
X165552381Y-51760476D01*
X165504762Y-51855714D01*
X165457143Y-51903333D01*
X153868381Y-66968666D02*
X153392190Y-67302000D01*
X153868381Y-67540095D02*
X152868381Y-67540095D01*
X152868381Y-67159142D01*
X152916000Y-67063904D01*
X152963619Y-67016285D01*
X153058857Y-66968666D01*
X153201714Y-66968666D01*
X153296952Y-67016285D01*
X153344571Y-67063904D01*
X153392190Y-67159142D01*
X153392190Y-67540095D01*
X153201714Y-66111523D02*
X153868381Y-66111523D01*
X152820762Y-66349619D02*
X153535048Y-66587714D01*
X153535048Y-65968666D01*
X130897334Y-73858381D02*
X130564000Y-73382190D01*
X130325905Y-73858381D02*
X130325905Y-72858381D01*
X130706858Y-72858381D01*
X130802096Y-72906000D01*
X130849715Y-72953619D01*
X130897334Y-73048857D01*
X130897334Y-73191714D01*
X130849715Y-73286952D01*
X130802096Y-73334571D01*
X130706858Y-73382190D01*
X130325905Y-73382190D01*
X131802096Y-72858381D02*
X131325905Y-72858381D01*
X131278286Y-73334571D01*
X131325905Y-73286952D01*
X131421143Y-73239333D01*
X131659239Y-73239333D01*
X131754477Y-73286952D01*
X131802096Y-73334571D01*
X131849715Y-73429810D01*
X131849715Y-73667905D01*
X131802096Y-73763143D01*
X131754477Y-73810762D01*
X131659239Y-73858381D01*
X131421143Y-73858381D01*
X131325905Y-73810762D01*
X131278286Y-73763143D01*
X150693381Y-66841666D02*
X150217190Y-67175000D01*
X150693381Y-67413095D02*
X149693381Y-67413095D01*
X149693381Y-67032142D01*
X149741000Y-66936904D01*
X149788619Y-66889285D01*
X149883857Y-66841666D01*
X150026714Y-66841666D01*
X150121952Y-66889285D01*
X150169571Y-66936904D01*
X150217190Y-67032142D01*
X150217190Y-67413095D01*
X149693381Y-65984523D02*
X149693381Y-66175000D01*
X149741000Y-66270238D01*
X149788619Y-66317857D01*
X149931476Y-66413095D01*
X150121952Y-66460714D01*
X150502905Y-66460714D01*
X150598143Y-66413095D01*
X150645762Y-66365476D01*
X150693381Y-66270238D01*
X150693381Y-66079761D01*
X150645762Y-65984523D01*
X150598143Y-65936904D01*
X150502905Y-65889285D01*
X150264810Y-65889285D01*
X150169571Y-65936904D01*
X150121952Y-65984523D01*
X150074333Y-66079761D01*
X150074333Y-66270238D01*
X150121952Y-66365476D01*
X150169571Y-66413095D01*
X150264810Y-66460714D01*
X153741381Y-85764666D02*
X153265190Y-86098000D01*
X153741381Y-86336095D02*
X152741381Y-86336095D01*
X152741381Y-85955142D01*
X152789000Y-85859904D01*
X152836619Y-85812285D01*
X152931857Y-85764666D01*
X153074714Y-85764666D01*
X153169952Y-85812285D01*
X153217571Y-85859904D01*
X153265190Y-85955142D01*
X153265190Y-86336095D01*
X152741381Y-85431333D02*
X152741381Y-84764666D01*
X153741381Y-85193238D01*
X131913334Y-78811381D02*
X131580000Y-78335190D01*
X131341905Y-78811381D02*
X131341905Y-77811381D01*
X131722858Y-77811381D01*
X131818096Y-77859000D01*
X131865715Y-77906619D01*
X131913334Y-78001857D01*
X131913334Y-78144714D01*
X131865715Y-78239952D01*
X131818096Y-78287571D01*
X131722858Y-78335190D01*
X131341905Y-78335190D01*
X132484762Y-78239952D02*
X132389524Y-78192333D01*
X132341905Y-78144714D01*
X132294286Y-78049476D01*
X132294286Y-78001857D01*
X132341905Y-77906619D01*
X132389524Y-77859000D01*
X132484762Y-77811381D01*
X132675239Y-77811381D01*
X132770477Y-77859000D01*
X132818096Y-77906619D01*
X132865715Y-78001857D01*
X132865715Y-78049476D01*
X132818096Y-78144714D01*
X132770477Y-78192333D01*
X132675239Y-78239952D01*
X132484762Y-78239952D01*
X132389524Y-78287571D01*
X132341905Y-78335190D01*
X132294286Y-78430429D01*
X132294286Y-78620905D01*
X132341905Y-78716143D01*
X132389524Y-78763762D01*
X132484762Y-78811381D01*
X132675239Y-78811381D01*
X132770477Y-78763762D01*
X132818096Y-78716143D01*
X132865715Y-78620905D01*
X132865715Y-78430429D01*
X132818096Y-78335190D01*
X132770477Y-78287571D01*
X132675239Y-78239952D01*
X150693381Y-85764666D02*
X150217190Y-86098000D01*
X150693381Y-86336095D02*
X149693381Y-86336095D01*
X149693381Y-85955142D01*
X149741000Y-85859904D01*
X149788619Y-85812285D01*
X149883857Y-85764666D01*
X150026714Y-85764666D01*
X150121952Y-85812285D01*
X150169571Y-85859904D01*
X150217190Y-85955142D01*
X150217190Y-86336095D01*
X150693381Y-85288476D02*
X150693381Y-85098000D01*
X150645762Y-85002761D01*
X150598143Y-84955142D01*
X150455286Y-84859904D01*
X150264810Y-84812285D01*
X149883857Y-84812285D01*
X149788619Y-84859904D01*
X149741000Y-84907523D01*
X149693381Y-85002761D01*
X149693381Y-85193238D01*
X149741000Y-85288476D01*
X149788619Y-85336095D01*
X149883857Y-85383714D01*
X150121952Y-85383714D01*
X150217190Y-85336095D01*
X150264810Y-85288476D01*
X150312429Y-85193238D01*
X150312429Y-85002761D01*
X150264810Y-84907523D01*
X150217190Y-84859904D01*
X150121952Y-84812285D01*
X172029381Y-98432857D02*
X171553190Y-98766191D01*
X172029381Y-99004286D02*
X171029381Y-99004286D01*
X171029381Y-98623333D01*
X171077000Y-98528095D01*
X171124619Y-98480476D01*
X171219857Y-98432857D01*
X171362714Y-98432857D01*
X171457952Y-98480476D01*
X171505571Y-98528095D01*
X171553190Y-98623333D01*
X171553190Y-99004286D01*
X172029381Y-97480476D02*
X172029381Y-98051905D01*
X172029381Y-97766191D02*
X171029381Y-97766191D01*
X171172238Y-97861429D01*
X171267476Y-97956667D01*
X171315095Y-98051905D01*
X171029381Y-96861429D02*
X171029381Y-96766190D01*
X171077000Y-96670952D01*
X171124619Y-96623333D01*
X171219857Y-96575714D01*
X171410333Y-96528095D01*
X171648429Y-96528095D01*
X171838905Y-96575714D01*
X171934143Y-96623333D01*
X171981762Y-96670952D01*
X172029381Y-96766190D01*
X172029381Y-96861429D01*
X171981762Y-96956667D01*
X171934143Y-97004286D01*
X171838905Y-97051905D01*
X171648429Y-97099524D01*
X171410333Y-97099524D01*
X171219857Y-97051905D01*
X171124619Y-97004286D01*
X171077000Y-96956667D01*
X171029381Y-96861429D01*
X164155381Y-98432857D02*
X163679190Y-98766191D01*
X164155381Y-99004286D02*
X163155381Y-99004286D01*
X163155381Y-98623333D01*
X163203000Y-98528095D01*
X163250619Y-98480476D01*
X163345857Y-98432857D01*
X163488714Y-98432857D01*
X163583952Y-98480476D01*
X163631571Y-98528095D01*
X163679190Y-98623333D01*
X163679190Y-99004286D01*
X164155381Y-97480476D02*
X164155381Y-98051905D01*
X164155381Y-97766191D02*
X163155381Y-97766191D01*
X163298238Y-97861429D01*
X163393476Y-97956667D01*
X163441095Y-98051905D01*
X164155381Y-96528095D02*
X164155381Y-97099524D01*
X164155381Y-96813810D02*
X163155381Y-96813810D01*
X163298238Y-96909048D01*
X163393476Y-97004286D01*
X163441095Y-97099524D01*
X139517381Y-88780857D02*
X139041190Y-89114191D01*
X139517381Y-89352286D02*
X138517381Y-89352286D01*
X138517381Y-88971333D01*
X138565000Y-88876095D01*
X138612619Y-88828476D01*
X138707857Y-88780857D01*
X138850714Y-88780857D01*
X138945952Y-88828476D01*
X138993571Y-88876095D01*
X139041190Y-88971333D01*
X139041190Y-89352286D01*
X139517381Y-87828476D02*
X139517381Y-88399905D01*
X139517381Y-88114191D02*
X138517381Y-88114191D01*
X138660238Y-88209429D01*
X138755476Y-88304667D01*
X138803095Y-88399905D01*
X138612619Y-87447524D02*
X138565000Y-87399905D01*
X138517381Y-87304667D01*
X138517381Y-87066571D01*
X138565000Y-86971333D01*
X138612619Y-86923714D01*
X138707857Y-86876095D01*
X138803095Y-86876095D01*
X138945952Y-86923714D01*
X139517381Y-87495143D01*
X139517381Y-86876095D01*
X140914381Y-88780857D02*
X140438190Y-89114191D01*
X140914381Y-89352286D02*
X139914381Y-89352286D01*
X139914381Y-88971333D01*
X139962000Y-88876095D01*
X140009619Y-88828476D01*
X140104857Y-88780857D01*
X140247714Y-88780857D01*
X140342952Y-88828476D01*
X140390571Y-88876095D01*
X140438190Y-88971333D01*
X140438190Y-89352286D01*
X140914381Y-87828476D02*
X140914381Y-88399905D01*
X140914381Y-88114191D02*
X139914381Y-88114191D01*
X140057238Y-88209429D01*
X140152476Y-88304667D01*
X140200095Y-88399905D01*
X139914381Y-87495143D02*
X139914381Y-86876095D01*
X140295333Y-87209429D01*
X140295333Y-87066571D01*
X140342952Y-86971333D01*
X140390571Y-86923714D01*
X140485810Y-86876095D01*
X140723905Y-86876095D01*
X140819143Y-86923714D01*
X140866762Y-86971333D01*
X140914381Y-87066571D01*
X140914381Y-87352286D01*
X140866762Y-87447524D01*
X140819143Y-87495143D01*
X136247143Y-68111666D02*
X136294762Y-68159285D01*
X136342381Y-68302142D01*
X136342381Y-68397380D01*
X136294762Y-68540238D01*
X136199524Y-68635476D01*
X136104286Y-68683095D01*
X135913810Y-68730714D01*
X135770952Y-68730714D01*
X135580476Y-68683095D01*
X135485238Y-68635476D01*
X135390000Y-68540238D01*
X135342381Y-68397380D01*
X135342381Y-68302142D01*
X135390000Y-68159285D01*
X135437619Y-68111666D01*
X135342381Y-67206904D02*
X135342381Y-67683095D01*
X135818571Y-67730714D01*
X135770952Y-67683095D01*
X135723333Y-67587857D01*
X135723333Y-67349761D01*
X135770952Y-67254523D01*
X135818571Y-67206904D01*
X135913810Y-67159285D01*
X136151905Y-67159285D01*
X136247143Y-67206904D01*
X136294762Y-67254523D01*
X136342381Y-67349761D01*
X136342381Y-67587857D01*
X136294762Y-67683095D01*
X136247143Y-67730714D01*
X170632381Y-52236666D02*
X170156190Y-52570000D01*
X170632381Y-52808095D02*
X169632381Y-52808095D01*
X169632381Y-52427142D01*
X169680000Y-52331904D01*
X169727619Y-52284285D01*
X169822857Y-52236666D01*
X169965714Y-52236666D01*
X170060952Y-52284285D01*
X170108571Y-52331904D01*
X170156190Y-52427142D01*
X170156190Y-52808095D01*
X169727619Y-51855714D02*
X169680000Y-51808095D01*
X169632381Y-51712857D01*
X169632381Y-51474761D01*
X169680000Y-51379523D01*
X169727619Y-51331904D01*
X169822857Y-51284285D01*
X169918095Y-51284285D01*
X170060952Y-51331904D01*
X170632381Y-51903333D01*
X170632381Y-51284285D01*
X143343334Y-64492143D02*
X143295715Y-64539762D01*
X143152858Y-64587381D01*
X143057620Y-64587381D01*
X142914762Y-64539762D01*
X142819524Y-64444524D01*
X142771905Y-64349286D01*
X142724286Y-64158810D01*
X142724286Y-64015952D01*
X142771905Y-63825476D01*
X142819524Y-63730238D01*
X142914762Y-63635000D01*
X143057620Y-63587381D01*
X143152858Y-63587381D01*
X143295715Y-63635000D01*
X143343334Y-63682619D01*
X144295715Y-64587381D02*
X143724286Y-64587381D01*
X144010000Y-64587381D02*
X144010000Y-63587381D01*
X143914762Y-63730238D01*
X143819524Y-63825476D01*
X143724286Y-63873095D01*
X140057143Y-68111666D02*
X140104762Y-68159285D01*
X140152381Y-68302142D01*
X140152381Y-68397380D01*
X140104762Y-68540238D01*
X140009524Y-68635476D01*
X139914286Y-68683095D01*
X139723810Y-68730714D01*
X139580952Y-68730714D01*
X139390476Y-68683095D01*
X139295238Y-68635476D01*
X139200000Y-68540238D01*
X139152381Y-68397380D01*
X139152381Y-68302142D01*
X139200000Y-68159285D01*
X139247619Y-68111666D01*
X139247619Y-67730714D02*
X139200000Y-67683095D01*
X139152381Y-67587857D01*
X139152381Y-67349761D01*
X139200000Y-67254523D01*
X139247619Y-67206904D01*
X139342857Y-67159285D01*
X139438095Y-67159285D01*
X139580952Y-67206904D01*
X140152381Y-67778333D01*
X140152381Y-67159285D01*
X138898334Y-59412143D02*
X138850715Y-59459762D01*
X138707858Y-59507381D01*
X138612620Y-59507381D01*
X138469762Y-59459762D01*
X138374524Y-59364524D01*
X138326905Y-59269286D01*
X138279286Y-59078810D01*
X138279286Y-58935952D01*
X138326905Y-58745476D01*
X138374524Y-58650238D01*
X138469762Y-58555000D01*
X138612620Y-58507381D01*
X138707858Y-58507381D01*
X138850715Y-58555000D01*
X138898334Y-58602619D01*
X139231667Y-58507381D02*
X139850715Y-58507381D01*
X139517381Y-58888333D01*
X139660239Y-58888333D01*
X139755477Y-58935952D01*
X139803096Y-58983571D01*
X139850715Y-59078810D01*
X139850715Y-59316905D01*
X139803096Y-59412143D01*
X139755477Y-59459762D01*
X139660239Y-59507381D01*
X139374524Y-59507381D01*
X139279286Y-59459762D01*
X139231667Y-59412143D01*
X168505143Y-59221666D02*
X168552762Y-59269285D01*
X168600381Y-59412142D01*
X168600381Y-59507380D01*
X168552762Y-59650238D01*
X168457524Y-59745476D01*
X168362286Y-59793095D01*
X168171810Y-59840714D01*
X168028952Y-59840714D01*
X167838476Y-59793095D01*
X167743238Y-59745476D01*
X167648000Y-59650238D01*
X167600381Y-59507380D01*
X167600381Y-59412142D01*
X167648000Y-59269285D01*
X167695619Y-59221666D01*
X168028952Y-58650238D02*
X167981333Y-58745476D01*
X167933714Y-58793095D01*
X167838476Y-58840714D01*
X167790857Y-58840714D01*
X167695619Y-58793095D01*
X167648000Y-58745476D01*
X167600381Y-58650238D01*
X167600381Y-58459761D01*
X167648000Y-58364523D01*
X167695619Y-58316904D01*
X167790857Y-58269285D01*
X167838476Y-58269285D01*
X167933714Y-58316904D01*
X167981333Y-58364523D01*
X168028952Y-58459761D01*
X168028952Y-58650238D01*
X168076571Y-58745476D01*
X168124190Y-58793095D01*
X168219429Y-58840714D01*
X168409905Y-58840714D01*
X168505143Y-58793095D01*
X168552762Y-58745476D01*
X168600381Y-58650238D01*
X168600381Y-58459761D01*
X168552762Y-58364523D01*
X168505143Y-58316904D01*
X168409905Y-58269285D01*
X168219429Y-58269285D01*
X168124190Y-58316904D01*
X168076571Y-58364523D01*
X168028952Y-58459761D01*
X134342143Y-68111666D02*
X134389762Y-68159285D01*
X134437381Y-68302142D01*
X134437381Y-68397380D01*
X134389762Y-68540238D01*
X134294524Y-68635476D01*
X134199286Y-68683095D01*
X134008810Y-68730714D01*
X133865952Y-68730714D01*
X133675476Y-68683095D01*
X133580238Y-68635476D01*
X133485000Y-68540238D01*
X133437381Y-68397380D01*
X133437381Y-68302142D01*
X133485000Y-68159285D01*
X133532619Y-68111666D01*
X134437381Y-67635476D02*
X134437381Y-67445000D01*
X134389762Y-67349761D01*
X134342143Y-67302142D01*
X134199286Y-67206904D01*
X134008810Y-67159285D01*
X133627857Y-67159285D01*
X133532619Y-67206904D01*
X133485000Y-67254523D01*
X133437381Y-67349761D01*
X133437381Y-67540238D01*
X133485000Y-67635476D01*
X133532619Y-67683095D01*
X133627857Y-67730714D01*
X133865952Y-67730714D01*
X133961190Y-67683095D01*
X134008810Y-67635476D01*
X134056429Y-67540238D01*
X134056429Y-67349761D01*
X134008810Y-67254523D01*
X133961190Y-67206904D01*
X133865952Y-67159285D01*
X162282143Y-74302857D02*
X162329762Y-74350476D01*
X162377381Y-74493333D01*
X162377381Y-74588571D01*
X162329762Y-74731429D01*
X162234524Y-74826667D01*
X162139286Y-74874286D01*
X161948810Y-74921905D01*
X161805952Y-74921905D01*
X161615476Y-74874286D01*
X161520238Y-74826667D01*
X161425000Y-74731429D01*
X161377381Y-74588571D01*
X161377381Y-74493333D01*
X161425000Y-74350476D01*
X161472619Y-74302857D01*
X162377381Y-73350476D02*
X162377381Y-73921905D01*
X162377381Y-73636191D02*
X161377381Y-73636191D01*
X161520238Y-73731429D01*
X161615476Y-73826667D01*
X161663095Y-73921905D01*
X161377381Y-73017143D02*
X161377381Y-72398095D01*
X161758333Y-72731429D01*
X161758333Y-72588571D01*
X161805952Y-72493333D01*
X161853571Y-72445714D01*
X161948810Y-72398095D01*
X162186905Y-72398095D01*
X162282143Y-72445714D01*
X162329762Y-72493333D01*
X162377381Y-72588571D01*
X162377381Y-72874286D01*
X162329762Y-72969524D01*
X162282143Y-73017143D01*
X162282143Y-79128857D02*
X162329762Y-79176476D01*
X162377381Y-79319333D01*
X162377381Y-79414571D01*
X162329762Y-79557429D01*
X162234524Y-79652667D01*
X162139286Y-79700286D01*
X161948810Y-79747905D01*
X161805952Y-79747905D01*
X161615476Y-79700286D01*
X161520238Y-79652667D01*
X161425000Y-79557429D01*
X161377381Y-79414571D01*
X161377381Y-79319333D01*
X161425000Y-79176476D01*
X161472619Y-79128857D01*
X162377381Y-78176476D02*
X162377381Y-78747905D01*
X162377381Y-78462191D02*
X161377381Y-78462191D01*
X161520238Y-78557429D01*
X161615476Y-78652667D01*
X161663095Y-78747905D01*
X161805952Y-77605048D02*
X161758333Y-77700286D01*
X161710714Y-77747905D01*
X161615476Y-77795524D01*
X161567857Y-77795524D01*
X161472619Y-77747905D01*
X161425000Y-77700286D01*
X161377381Y-77605048D01*
X161377381Y-77414571D01*
X161425000Y-77319333D01*
X161472619Y-77271714D01*
X161567857Y-77224095D01*
X161615476Y-77224095D01*
X161710714Y-77271714D01*
X161758333Y-77319333D01*
X161805952Y-77414571D01*
X161805952Y-77605048D01*
X161853571Y-77700286D01*
X161901190Y-77747905D01*
X161996429Y-77795524D01*
X162186905Y-77795524D01*
X162282143Y-77747905D01*
X162329762Y-77700286D01*
X162377381Y-77605048D01*
X162377381Y-77414571D01*
X162329762Y-77319333D01*
X162282143Y-77271714D01*
X162186905Y-77224095D01*
X161996429Y-77224095D01*
X161901190Y-77271714D01*
X161853571Y-77319333D01*
X161805952Y-77414571D01*
X128500143Y-81541857D02*
X128547762Y-81589476D01*
X128595381Y-81732333D01*
X128595381Y-81827571D01*
X128547762Y-81970429D01*
X128452524Y-82065667D01*
X128357286Y-82113286D01*
X128166810Y-82160905D01*
X128023952Y-82160905D01*
X127833476Y-82113286D01*
X127738238Y-82065667D01*
X127643000Y-81970429D01*
X127595381Y-81827571D01*
X127595381Y-81732333D01*
X127643000Y-81589476D01*
X127690619Y-81541857D01*
X127690619Y-81160905D02*
X127643000Y-81113286D01*
X127595381Y-81018048D01*
X127595381Y-80779952D01*
X127643000Y-80684714D01*
X127690619Y-80637095D01*
X127785857Y-80589476D01*
X127881095Y-80589476D01*
X128023952Y-80637095D01*
X128595381Y-81208524D01*
X128595381Y-80589476D01*
X127595381Y-79970429D02*
X127595381Y-79875190D01*
X127643000Y-79779952D01*
X127690619Y-79732333D01*
X127785857Y-79684714D01*
X127976333Y-79637095D01*
X128214429Y-79637095D01*
X128404905Y-79684714D01*
X128500143Y-79732333D01*
X128547762Y-79779952D01*
X128595381Y-79875190D01*
X128595381Y-79970429D01*
X128547762Y-80065667D01*
X128500143Y-80113286D01*
X128404905Y-80160905D01*
X128214429Y-80208524D01*
X127976333Y-80208524D01*
X127785857Y-80160905D01*
X127690619Y-80113286D01*
X127643000Y-80065667D01*
X127595381Y-79970429D01*
X130151143Y-81414857D02*
X130198762Y-81462476D01*
X130246381Y-81605333D01*
X130246381Y-81700571D01*
X130198762Y-81843429D01*
X130103524Y-81938667D01*
X130008286Y-81986286D01*
X129817810Y-82033905D01*
X129674952Y-82033905D01*
X129484476Y-81986286D01*
X129389238Y-81938667D01*
X129294000Y-81843429D01*
X129246381Y-81700571D01*
X129246381Y-81605333D01*
X129294000Y-81462476D01*
X129341619Y-81414857D01*
X129341619Y-81033905D02*
X129294000Y-80986286D01*
X129246381Y-80891048D01*
X129246381Y-80652952D01*
X129294000Y-80557714D01*
X129341619Y-80510095D01*
X129436857Y-80462476D01*
X129532095Y-80462476D01*
X129674952Y-80510095D01*
X130246381Y-81081524D01*
X130246381Y-80462476D01*
X130246381Y-79510095D02*
X130246381Y-80081524D01*
X130246381Y-79795810D02*
X129246381Y-79795810D01*
X129389238Y-79891048D01*
X129484476Y-79986286D01*
X129532095Y-80081524D01*
X168505143Y-93987857D02*
X168552762Y-94035476D01*
X168600381Y-94178333D01*
X168600381Y-94273571D01*
X168552762Y-94416429D01*
X168457524Y-94511667D01*
X168362286Y-94559286D01*
X168171810Y-94606905D01*
X168028952Y-94606905D01*
X167838476Y-94559286D01*
X167743238Y-94511667D01*
X167648000Y-94416429D01*
X167600381Y-94273571D01*
X167600381Y-94178333D01*
X167648000Y-94035476D01*
X167695619Y-93987857D01*
X167695619Y-93606905D02*
X167648000Y-93559286D01*
X167600381Y-93464048D01*
X167600381Y-93225952D01*
X167648000Y-93130714D01*
X167695619Y-93083095D01*
X167790857Y-93035476D01*
X167886095Y-93035476D01*
X168028952Y-93083095D01*
X168600381Y-93654524D01*
X168600381Y-93035476D01*
X167933714Y-92178333D02*
X168600381Y-92178333D01*
X167552762Y-92416429D02*
X168267048Y-92654524D01*
X168267048Y-92035476D01*
X142867143Y-88622143D02*
X142819524Y-88669762D01*
X142676667Y-88717381D01*
X142581429Y-88717381D01*
X142438571Y-88669762D01*
X142343333Y-88574524D01*
X142295714Y-88479286D01*
X142248095Y-88288810D01*
X142248095Y-88145952D01*
X142295714Y-87955476D01*
X142343333Y-87860238D01*
X142438571Y-87765000D01*
X142581429Y-87717381D01*
X142676667Y-87717381D01*
X142819524Y-87765000D01*
X142867143Y-87812619D01*
X143248095Y-87812619D02*
X143295714Y-87765000D01*
X143390952Y-87717381D01*
X143629048Y-87717381D01*
X143724286Y-87765000D01*
X143771905Y-87812619D01*
X143819524Y-87907857D01*
X143819524Y-88003095D01*
X143771905Y-88145952D01*
X143200476Y-88717381D01*
X143819524Y-88717381D01*
X144724286Y-87717381D02*
X144248095Y-87717381D01*
X144200476Y-88193571D01*
X144248095Y-88145952D01*
X144343333Y-88098333D01*
X144581429Y-88098333D01*
X144676667Y-88145952D01*
X144724286Y-88193571D01*
X144771905Y-88288810D01*
X144771905Y-88526905D01*
X144724286Y-88622143D01*
X144676667Y-88669762D01*
X144581429Y-88717381D01*
X144343333Y-88717381D01*
X144248095Y-88669762D01*
X144200476Y-88622143D01*
X144883143Y-85859857D02*
X144930762Y-85907476D01*
X144978381Y-86050333D01*
X144978381Y-86145571D01*
X144930762Y-86288429D01*
X144835524Y-86383667D01*
X144740286Y-86431286D01*
X144549810Y-86478905D01*
X144406952Y-86478905D01*
X144216476Y-86431286D01*
X144121238Y-86383667D01*
X144026000Y-86288429D01*
X143978381Y-86145571D01*
X143978381Y-86050333D01*
X144026000Y-85907476D01*
X144073619Y-85859857D01*
X144073619Y-85478905D02*
X144026000Y-85431286D01*
X143978381Y-85336048D01*
X143978381Y-85097952D01*
X144026000Y-85002714D01*
X144073619Y-84955095D01*
X144168857Y-84907476D01*
X144264095Y-84907476D01*
X144406952Y-84955095D01*
X144978381Y-85526524D01*
X144978381Y-84907476D01*
X143978381Y-84050333D02*
X143978381Y-84240810D01*
X144026000Y-84336048D01*
X144073619Y-84383667D01*
X144216476Y-84478905D01*
X144406952Y-84526524D01*
X144787905Y-84526524D01*
X144883143Y-84478905D01*
X144930762Y-84431286D01*
X144978381Y-84336048D01*
X144978381Y-84145571D01*
X144930762Y-84050333D01*
X144883143Y-84002714D01*
X144787905Y-83955095D01*
X144549810Y-83955095D01*
X144454571Y-84002714D01*
X144406952Y-84050333D01*
X144359333Y-84145571D01*
X144359333Y-84336048D01*
X144406952Y-84431286D01*
X144454571Y-84478905D01*
X144549810Y-84526524D01*
X138676143Y-93067143D02*
X138628524Y-93114762D01*
X138485667Y-93162381D01*
X138390429Y-93162381D01*
X138247571Y-93114762D01*
X138152333Y-93019524D01*
X138104714Y-92924286D01*
X138057095Y-92733810D01*
X138057095Y-92590952D01*
X138104714Y-92400476D01*
X138152333Y-92305238D01*
X138247571Y-92210000D01*
X138390429Y-92162381D01*
X138485667Y-92162381D01*
X138628524Y-92210000D01*
X138676143Y-92257619D01*
X139057095Y-92257619D02*
X139104714Y-92210000D01*
X139199952Y-92162381D01*
X139438048Y-92162381D01*
X139533286Y-92210000D01*
X139580905Y-92257619D01*
X139628524Y-92352857D01*
X139628524Y-92448095D01*
X139580905Y-92590952D01*
X139009476Y-93162381D01*
X139628524Y-93162381D01*
X139961857Y-92162381D02*
X140628524Y-92162381D01*
X140199952Y-93162381D01*
X149709143Y-82430857D02*
X149756762Y-82478476D01*
X149804381Y-82621333D01*
X149804381Y-82716571D01*
X149756762Y-82859429D01*
X149661524Y-82954667D01*
X149566286Y-83002286D01*
X149375810Y-83049905D01*
X149232952Y-83049905D01*
X149042476Y-83002286D01*
X148947238Y-82954667D01*
X148852000Y-82859429D01*
X148804381Y-82716571D01*
X148804381Y-82621333D01*
X148852000Y-82478476D01*
X148899619Y-82430857D01*
X149804381Y-81478476D02*
X149804381Y-82049905D01*
X149804381Y-81764191D02*
X148804381Y-81764191D01*
X148947238Y-81859429D01*
X149042476Y-81954667D01*
X149090095Y-82049905D01*
X148804381Y-80621333D02*
X148804381Y-80811810D01*
X148852000Y-80907048D01*
X148899619Y-80954667D01*
X149042476Y-81049905D01*
X149232952Y-81097524D01*
X149613905Y-81097524D01*
X149709143Y-81049905D01*
X149756762Y-81002286D01*
X149804381Y-80907048D01*
X149804381Y-80716571D01*
X149756762Y-80621333D01*
X149709143Y-80573714D01*
X149613905Y-80526095D01*
X149375810Y-80526095D01*
X149280571Y-80573714D01*
X149232952Y-80621333D01*
X149185333Y-80716571D01*
X149185333Y-80907048D01*
X149232952Y-81002286D01*
X149280571Y-81049905D01*
X149375810Y-81097524D01*
X149709143Y-71381857D02*
X149756762Y-71429476D01*
X149804381Y-71572333D01*
X149804381Y-71667571D01*
X149756762Y-71810429D01*
X149661524Y-71905667D01*
X149566286Y-71953286D01*
X149375810Y-72000905D01*
X149232952Y-72000905D01*
X149042476Y-71953286D01*
X148947238Y-71905667D01*
X148852000Y-71810429D01*
X148804381Y-71667571D01*
X148804381Y-71572333D01*
X148852000Y-71429476D01*
X148899619Y-71381857D01*
X149804381Y-70429476D02*
X149804381Y-71000905D01*
X149804381Y-70715191D02*
X148804381Y-70715191D01*
X148947238Y-70810429D01*
X149042476Y-70905667D01*
X149090095Y-71000905D01*
X149804381Y-69477095D02*
X149804381Y-70048524D01*
X149804381Y-69762810D02*
X148804381Y-69762810D01*
X148947238Y-69858048D01*
X149042476Y-69953286D01*
X149090095Y-70048524D01*
X146280143Y-66841666D02*
X146327762Y-66889285D01*
X146375381Y-67032142D01*
X146375381Y-67127380D01*
X146327762Y-67270238D01*
X146232524Y-67365476D01*
X146137286Y-67413095D01*
X145946810Y-67460714D01*
X145803952Y-67460714D01*
X145613476Y-67413095D01*
X145518238Y-67365476D01*
X145423000Y-67270238D01*
X145375381Y-67127380D01*
X145375381Y-67032142D01*
X145423000Y-66889285D01*
X145470619Y-66841666D01*
X145375381Y-65984523D02*
X145375381Y-66175000D01*
X145423000Y-66270238D01*
X145470619Y-66317857D01*
X145613476Y-66413095D01*
X145803952Y-66460714D01*
X146184905Y-66460714D01*
X146280143Y-66413095D01*
X146327762Y-66365476D01*
X146375381Y-66270238D01*
X146375381Y-66079761D01*
X146327762Y-65984523D01*
X146280143Y-65936904D01*
X146184905Y-65889285D01*
X145946810Y-65889285D01*
X145851571Y-65936904D01*
X145803952Y-65984523D01*
X145756333Y-66079761D01*
X145756333Y-66270238D01*
X145803952Y-66365476D01*
X145851571Y-66413095D01*
X145946810Y-66460714D01*
X147677143Y-83319857D02*
X147724762Y-83367476D01*
X147772381Y-83510333D01*
X147772381Y-83605571D01*
X147724762Y-83748429D01*
X147629524Y-83843667D01*
X147534286Y-83891286D01*
X147343810Y-83938905D01*
X147200952Y-83938905D01*
X147010476Y-83891286D01*
X146915238Y-83843667D01*
X146820000Y-83748429D01*
X146772381Y-83605571D01*
X146772381Y-83510333D01*
X146820000Y-83367476D01*
X146867619Y-83319857D01*
X146867619Y-82938905D02*
X146820000Y-82891286D01*
X146772381Y-82796048D01*
X146772381Y-82557952D01*
X146820000Y-82462714D01*
X146867619Y-82415095D01*
X146962857Y-82367476D01*
X147058095Y-82367476D01*
X147200952Y-82415095D01*
X147772381Y-82986524D01*
X147772381Y-82367476D01*
X146867619Y-81986524D02*
X146820000Y-81938905D01*
X146772381Y-81843667D01*
X146772381Y-81605571D01*
X146820000Y-81510333D01*
X146867619Y-81462714D01*
X146962857Y-81415095D01*
X147058095Y-81415095D01*
X147200952Y-81462714D01*
X147772381Y-82034143D01*
X147772381Y-81415095D01*
X152122143Y-67444857D02*
X152169762Y-67492476D01*
X152217381Y-67635333D01*
X152217381Y-67730571D01*
X152169762Y-67873429D01*
X152074524Y-67968667D01*
X151979286Y-68016286D01*
X151788810Y-68063905D01*
X151645952Y-68063905D01*
X151455476Y-68016286D01*
X151360238Y-67968667D01*
X151265000Y-67873429D01*
X151217381Y-67730571D01*
X151217381Y-67635333D01*
X151265000Y-67492476D01*
X151312619Y-67444857D01*
X152217381Y-66492476D02*
X152217381Y-67063905D01*
X152217381Y-66778191D02*
X151217381Y-66778191D01*
X151360238Y-66873429D01*
X151455476Y-66968667D01*
X151503095Y-67063905D01*
X151217381Y-65873429D02*
X151217381Y-65778190D01*
X151265000Y-65682952D01*
X151312619Y-65635333D01*
X151407857Y-65587714D01*
X151598333Y-65540095D01*
X151836429Y-65540095D01*
X152026905Y-65587714D01*
X152122143Y-65635333D01*
X152169762Y-65682952D01*
X152217381Y-65778190D01*
X152217381Y-65873429D01*
X152169762Y-65968667D01*
X152122143Y-66016286D01*
X152026905Y-66063905D01*
X151836429Y-66111524D01*
X151598333Y-66111524D01*
X151407857Y-66063905D01*
X151312619Y-66016286D01*
X151265000Y-65968667D01*
X151217381Y-65873429D01*
X156313143Y-72524857D02*
X156360762Y-72572476D01*
X156408381Y-72715333D01*
X156408381Y-72810571D01*
X156360762Y-72953429D01*
X156265524Y-73048667D01*
X156170286Y-73096286D01*
X155979810Y-73143905D01*
X155836952Y-73143905D01*
X155646476Y-73096286D01*
X155551238Y-73048667D01*
X155456000Y-72953429D01*
X155408381Y-72810571D01*
X155408381Y-72715333D01*
X155456000Y-72572476D01*
X155503619Y-72524857D01*
X156408381Y-71572476D02*
X156408381Y-72143905D01*
X156408381Y-71858191D02*
X155408381Y-71858191D01*
X155551238Y-71953429D01*
X155646476Y-72048667D01*
X155694095Y-72143905D01*
X155503619Y-71191524D02*
X155456000Y-71143905D01*
X155408381Y-71048667D01*
X155408381Y-70810571D01*
X155456000Y-70715333D01*
X155503619Y-70667714D01*
X155598857Y-70620095D01*
X155694095Y-70620095D01*
X155836952Y-70667714D01*
X156408381Y-71239143D01*
X156408381Y-70620095D01*
X156440143Y-81287857D02*
X156487762Y-81335476D01*
X156535381Y-81478333D01*
X156535381Y-81573571D01*
X156487762Y-81716429D01*
X156392524Y-81811667D01*
X156297286Y-81859286D01*
X156106810Y-81906905D01*
X155963952Y-81906905D01*
X155773476Y-81859286D01*
X155678238Y-81811667D01*
X155583000Y-81716429D01*
X155535381Y-81573571D01*
X155535381Y-81478333D01*
X155583000Y-81335476D01*
X155630619Y-81287857D01*
X156535381Y-80335476D02*
X156535381Y-80906905D01*
X156535381Y-80621191D02*
X155535381Y-80621191D01*
X155678238Y-80716429D01*
X155773476Y-80811667D01*
X155821095Y-80906905D01*
X155535381Y-80002143D02*
X155535381Y-79335476D01*
X156535381Y-79764048D01*
X152122143Y-86367857D02*
X152169762Y-86415476D01*
X152217381Y-86558333D01*
X152217381Y-86653571D01*
X152169762Y-86796429D01*
X152074524Y-86891667D01*
X151979286Y-86939286D01*
X151788810Y-86986905D01*
X151645952Y-86986905D01*
X151455476Y-86939286D01*
X151360238Y-86891667D01*
X151265000Y-86796429D01*
X151217381Y-86653571D01*
X151217381Y-86558333D01*
X151265000Y-86415476D01*
X151312619Y-86367857D01*
X152217381Y-85415476D02*
X152217381Y-85986905D01*
X152217381Y-85701191D02*
X151217381Y-85701191D01*
X151360238Y-85796429D01*
X151455476Y-85891667D01*
X151503095Y-85986905D01*
X151550714Y-84558333D02*
X152217381Y-84558333D01*
X151169762Y-84796429D02*
X151884048Y-85034524D01*
X151884048Y-84415476D01*
X167997143Y-52236666D02*
X168044762Y-52284285D01*
X168092381Y-52427142D01*
X168092381Y-52522380D01*
X168044762Y-52665238D01*
X167949524Y-52760476D01*
X167854286Y-52808095D01*
X167663810Y-52855714D01*
X167520952Y-52855714D01*
X167330476Y-52808095D01*
X167235238Y-52760476D01*
X167140000Y-52665238D01*
X167092381Y-52522380D01*
X167092381Y-52427142D01*
X167140000Y-52284285D01*
X167187619Y-52236666D01*
X167425714Y-51379523D02*
X168092381Y-51379523D01*
X167044762Y-51617619D02*
X167759048Y-51855714D01*
X167759048Y-51236666D01*
X166997143Y-100560143D02*
X166949524Y-100607762D01*
X166806667Y-100655381D01*
X166711429Y-100655381D01*
X166568571Y-100607762D01*
X166473333Y-100512524D01*
X166425714Y-100417286D01*
X166378095Y-100226810D01*
X166378095Y-100083952D01*
X166425714Y-99893476D01*
X166473333Y-99798238D01*
X166568571Y-99703000D01*
X166711429Y-99655381D01*
X166806667Y-99655381D01*
X166949524Y-99703000D01*
X166997143Y-99750619D01*
X167949524Y-100655381D02*
X167378095Y-100655381D01*
X167663809Y-100655381D02*
X167663809Y-99655381D01*
X167568571Y-99798238D01*
X167473333Y-99893476D01*
X167378095Y-99941095D01*
X168425714Y-100655381D02*
X168616190Y-100655381D01*
X168711429Y-100607762D01*
X168759048Y-100560143D01*
X168854286Y-100417286D01*
X168901905Y-100226810D01*
X168901905Y-99845857D01*
X168854286Y-99750619D01*
X168806667Y-99703000D01*
X168711429Y-99655381D01*
X168520952Y-99655381D01*
X168425714Y-99703000D01*
X168378095Y-99750619D01*
X168330476Y-99845857D01*
X168330476Y-100083952D01*
X168378095Y-100179190D01*
X168425714Y-100226810D01*
X168520952Y-100274429D01*
X168711429Y-100274429D01*
X168806667Y-100226810D01*
X168854286Y-100179190D01*
X168901905Y-100083952D01*
X164060143Y-93352857D02*
X164107762Y-93400476D01*
X164155381Y-93543333D01*
X164155381Y-93638571D01*
X164107762Y-93781429D01*
X164012524Y-93876667D01*
X163917286Y-93924286D01*
X163726810Y-93971905D01*
X163583952Y-93971905D01*
X163393476Y-93924286D01*
X163298238Y-93876667D01*
X163203000Y-93781429D01*
X163155381Y-93638571D01*
X163155381Y-93543333D01*
X163203000Y-93400476D01*
X163250619Y-93352857D01*
X163250619Y-92971905D02*
X163203000Y-92924286D01*
X163155381Y-92829048D01*
X163155381Y-92590952D01*
X163203000Y-92495714D01*
X163250619Y-92448095D01*
X163345857Y-92400476D01*
X163441095Y-92400476D01*
X163583952Y-92448095D01*
X164155381Y-93019524D01*
X164155381Y-92400476D01*
X163155381Y-92067143D02*
X163155381Y-91448095D01*
X163536333Y-91781429D01*
X163536333Y-91638571D01*
X163583952Y-91543333D01*
X163631571Y-91495714D01*
X163726810Y-91448095D01*
X163964905Y-91448095D01*
X164060143Y-91495714D01*
X164107762Y-91543333D01*
X164155381Y-91638571D01*
X164155381Y-91924286D01*
X164107762Y-92019524D01*
X164060143Y-92067143D01*
X163933143Y-59729666D02*
X163980762Y-59777285D01*
X164028381Y-59920142D01*
X164028381Y-60015380D01*
X163980762Y-60158238D01*
X163885524Y-60253476D01*
X163790286Y-60301095D01*
X163599810Y-60348714D01*
X163456952Y-60348714D01*
X163266476Y-60301095D01*
X163171238Y-60253476D01*
X163076000Y-60158238D01*
X163028381Y-60015380D01*
X163028381Y-59920142D01*
X163076000Y-59777285D01*
X163123619Y-59729666D01*
X163028381Y-59396333D02*
X163028381Y-58729666D01*
X164028381Y-59158238D01*
X128500143Y-71762857D02*
X128547762Y-71810476D01*
X128595381Y-71953333D01*
X128595381Y-72048571D01*
X128547762Y-72191429D01*
X128452524Y-72286667D01*
X128357286Y-72334286D01*
X128166810Y-72381905D01*
X128023952Y-72381905D01*
X127833476Y-72334286D01*
X127738238Y-72286667D01*
X127643000Y-72191429D01*
X127595381Y-72048571D01*
X127595381Y-71953333D01*
X127643000Y-71810476D01*
X127690619Y-71762857D01*
X128595381Y-70810476D02*
X128595381Y-71381905D01*
X128595381Y-71096191D02*
X127595381Y-71096191D01*
X127738238Y-71191429D01*
X127833476Y-71286667D01*
X127881095Y-71381905D01*
X127595381Y-69905714D02*
X127595381Y-70381905D01*
X128071571Y-70429524D01*
X128023952Y-70381905D01*
X127976333Y-70286667D01*
X127976333Y-70048571D01*
X128023952Y-69953333D01*
X128071571Y-69905714D01*
X128166810Y-69858095D01*
X128404905Y-69858095D01*
X128500143Y-69905714D01*
X128547762Y-69953333D01*
X128595381Y-70048571D01*
X128595381Y-70286667D01*
X128547762Y-70381905D01*
X128500143Y-70429524D01*
M02*
