M48
;DRILL file {KiCad 4.0.5} date 04/25/17 13:15:50
;FORMAT={-:-/ absolute / metric / decimal}
FMAT,2
METRIC,TZ
T1C0.400
T2C0.800
T3C1.016
T4C1.500
T5C3.200
%
G90
G05
M71
T1
X128.397Y-59.944
X128.397Y-67.056
X128.524Y-84.963
X128.651Y-93.726
X129.54Y-63.5
X129.54Y-68.707
X129.54Y-88.9
X131.953Y-59.944
X132.08Y-82.55
X132.461Y-80.01
X133.35Y-87.884
X134.239Y-87.376
X134.62Y-93.98
X134.874Y-64.389
X134.874Y-65.405
X134.874Y-67.691
X134.874Y-78.74
X135.89Y-59.944
X136.017Y-81.915
X136.144Y-70.231
X136.398Y-83.947
X137.414Y-89.281
X137.795Y-73.66
X137.795Y-74.93
X137.795Y-76.2
X137.795Y-77.47
X137.795Y-78.74
X137.795Y-80.01
X138.43Y-93.98
X138.811Y-59.944
X139.065Y-71.12
X139.065Y-72.39
X139.065Y-73.66
X139.065Y-74.93
X139.065Y-76.2
X139.065Y-77.47
X139.065Y-78.74
X139.065Y-80.01
X139.065Y-81.28
X139.065Y-83.312
X139.065Y-87.376
X140.208Y-90.17
X140.335Y-71.12
X140.335Y-72.39
X140.335Y-73.66
X140.335Y-74.93
X140.335Y-76.2
X140.335Y-77.47
X140.335Y-78.74
X140.335Y-80.01
X140.335Y-81.28
X140.462Y-62.23
X140.97Y-83.312
X141.224Y-64.643
X141.605Y-71.12
X141.605Y-72.39
X141.605Y-73.66
X141.605Y-74.93
X141.605Y-76.2
X141.605Y-77.47
X141.605Y-78.74
X141.605Y-80.01
X141.605Y-81.28
X142.875Y-87.249
X149.86Y-53.34
X149.86Y-100.33
X150.114Y-52.197
X152.4Y-84.328
X153.035Y-66.04
X153.035Y-68.326
X154.94Y-60.706
X154.94Y-64.516
X154.94Y-87.757
X154.94Y-91.694
X156.337Y-68.453
X156.337Y-83.566
X157.48Y-60.706
X157.48Y-64.516
X157.48Y-87.757
X157.48Y-91.694
X160.02Y-71.755
X160.02Y-80.772
X163.322Y-52.959
X165.1Y-100.33
X166.37Y-53.848
X170.053Y-100.33
X170.18Y-62.484
X170.18Y-67.564
X170.18Y-71.882
X170.18Y-80.772
X170.18Y-85.09
X170.18Y-89.916
X171.069Y-76.2
X174.879Y-99.06
T2
X141.915Y-55.88
X141.915Y-96.52
X145.415Y-55.88
X145.415Y-96.52
T3
X130.81Y-62.23
X130.81Y-64.77
X130.81Y-87.63
X130.81Y-90.17
X133.35Y-62.23
X133.35Y-90.17
X135.89Y-90.17
X173.99Y-55.88
X173.99Y-60.96
X173.99Y-91.44
X173.99Y-96.52
T4
X135.255Y-53.975
X135.255Y-98.425
T5
X127.Y-50.8
X127.Y-76.2
X127.Y-101.6
X152.4Y-76.2
X177.8Y-50.8
X177.8Y-76.2
X177.8Y-101.6
T0
M30
