G04 #@! TF.FileFunction,Copper,L2,Bot,Signal*
%FSLAX46Y46*%
G04 Gerber Fmt 4.6, Leading zero omitted, Abs format (unit mm)*
G04 Created by KiCad (PCBNEW 4.0.5) date 04/25/17 13:15:45*
%MOMM*%
%LPD*%
G01*
G04 APERTURE LIST*
%ADD10C,0.100000*%
%ADD11C,1.300000*%
%ADD12R,1.300000X1.300000*%
%ADD13C,3.000000*%
%ADD14C,2.000000*%
%ADD15C,6.400000*%
%ADD16R,2.800000X6.200000*%
%ADD17C,6.000000*%
%ADD18C,0.600000*%
%ADD19C,2.000000*%
%ADD20C,1.000000*%
%ADD21C,0.250000*%
%ADD22C,0.350000*%
%ADD23C,0.200000*%
G04 APERTURE END LIST*
D10*
D11*
X141915000Y-55880000D03*
D12*
X145415000Y-55880000D03*
D11*
X141915000Y-96520000D03*
D12*
X145415000Y-96520000D03*
D13*
X135255000Y-53975000D03*
X135255000Y-98425000D03*
D14*
X133350000Y-62230000D03*
X130810000Y-62230000D03*
X130810000Y-64770000D03*
X130810000Y-87630000D03*
X130810000Y-90170000D03*
X133350000Y-90170000D03*
X135890000Y-90170000D03*
X173990000Y-55880000D03*
X173990000Y-60960000D03*
X173990000Y-91440000D03*
X173990000Y-96520000D03*
D15*
X152400000Y-76200000D03*
D16*
X139700000Y-76200000D03*
D17*
X177800000Y-50800000D03*
X127000000Y-50800000D03*
X177800000Y-76200000D03*
X127000000Y-76200000D03*
X127000000Y-101600000D03*
X177800000Y-101600000D03*
D18*
X174879000Y-99060000D03*
X171069000Y-76200000D03*
X170053000Y-100330000D03*
X156337000Y-83566000D03*
X157480000Y-64516000D03*
X156337000Y-68453000D03*
X153035000Y-66040000D03*
X153035000Y-68326000D03*
X152400000Y-84328000D03*
X139065000Y-87376000D03*
X137414000Y-89281000D03*
X134874000Y-65405000D03*
X134874000Y-67691000D03*
X134874000Y-64389000D03*
X132080000Y-82550000D03*
X128524000Y-84963000D03*
X128651000Y-93726000D03*
X129540000Y-88900000D03*
X129540000Y-63500000D03*
X150114000Y-52197000D03*
X163322000Y-52959000D03*
X149860000Y-53340000D03*
X138430000Y-93980000D03*
X134620000Y-93980000D03*
X131953000Y-59944000D03*
X128397000Y-67056000D03*
X129540000Y-68707000D03*
X128397000Y-59944000D03*
X138811000Y-59944000D03*
X135890000Y-59944000D03*
X165100000Y-100330000D03*
X149860000Y-100330000D03*
X157480000Y-87757000D03*
X157480000Y-91694000D03*
X154940000Y-87757000D03*
X154940000Y-91694000D03*
X157480000Y-60706000D03*
X154940000Y-64516000D03*
X154940000Y-60706000D03*
X170180000Y-67564000D03*
X170180000Y-62484000D03*
X170180000Y-71882000D03*
X170180000Y-85090000D03*
X170180000Y-89916000D03*
X170180000Y-80772000D03*
X133350000Y-87884000D03*
X142875000Y-87249000D03*
X140208000Y-90170000D03*
X160020000Y-80772000D03*
X160020000Y-71755000D03*
X141224000Y-64643000D03*
X140462000Y-62230000D03*
X166370000Y-53848000D03*
X140335000Y-73660000D03*
X140335000Y-80010000D03*
X139065000Y-80010000D03*
X139065000Y-78740000D03*
X140335000Y-78740000D03*
X140335000Y-77470000D03*
X139065000Y-77470000D03*
X139065000Y-76200000D03*
X140335000Y-76200000D03*
X140335000Y-74930000D03*
X139065000Y-74930000D03*
X139065000Y-73660000D03*
X139065000Y-72390000D03*
X140335000Y-72390000D03*
X141605000Y-72390000D03*
X141605000Y-73660000D03*
X141605000Y-74930000D03*
X141605000Y-76200000D03*
X141605000Y-77470000D03*
X141605000Y-78740000D03*
X141605000Y-80010000D03*
X141605000Y-81280000D03*
X140335000Y-81280000D03*
X139065000Y-81280000D03*
X137795000Y-80010000D03*
X137795000Y-78740000D03*
X137795000Y-77470000D03*
X137795000Y-76200000D03*
X137795000Y-74930000D03*
X137795000Y-73660000D03*
X139065000Y-71120000D03*
X140335000Y-71120000D03*
X141605000Y-71120000D03*
X134239000Y-87376000D03*
X136144000Y-70231000D03*
X134874000Y-78740000D03*
X139065000Y-83312000D03*
X140970000Y-83312000D03*
X136017000Y-81915000D03*
X136398000Y-83947000D03*
X132461000Y-80010000D03*
D19*
X135255000Y-53975000D02*
X138938000Y-53975000D01*
X138938000Y-53975000D02*
X140081000Y-52832000D01*
X140081000Y-52832000D02*
X144272000Y-52832000D01*
X144272000Y-52832000D02*
X147320000Y-55880000D01*
X147320000Y-55880000D02*
X146812000Y-55880000D01*
X146812000Y-55880000D02*
X158750000Y-55880000D01*
D20*
X145415000Y-55880000D02*
X146812000Y-55880000D01*
D19*
X158750000Y-55880000D02*
X167640000Y-64770000D01*
X167640000Y-64770000D02*
X167640000Y-87376000D01*
X167640000Y-87376000D02*
X158496000Y-96520000D01*
X158496000Y-96520000D02*
X145415000Y-96520000D01*
D20*
X145415000Y-53975000D02*
X145415000Y-55880000D01*
X144272000Y-52832000D02*
X145415000Y-53975000D01*
X140081000Y-52832000D02*
X144272000Y-52832000D01*
X138938000Y-53975000D02*
X140081000Y-52832000D01*
X158750000Y-55880000D02*
X167640000Y-64770000D01*
X167640000Y-64770000D02*
X167640000Y-87376000D01*
X167640000Y-87376000D02*
X158496000Y-96520000D01*
X158496000Y-96520000D02*
X145415000Y-96520000D01*
D21*
X177800000Y-101600000D02*
X177419000Y-101600000D01*
X177419000Y-101600000D02*
X174879000Y-99060000D01*
X153035000Y-68326000D02*
X153035000Y-66040000D01*
X152400000Y-76200000D02*
X152400000Y-84328000D01*
X134874000Y-64389000D02*
X134874000Y-65405000D01*
X134493000Y-68707000D02*
X129540000Y-68707000D01*
X134874000Y-68326000D02*
X134874000Y-67691000D01*
X134493000Y-68707000D02*
X134874000Y-68326000D01*
X129667000Y-84963000D02*
X132080000Y-82550000D01*
X129667000Y-84963000D02*
X128524000Y-84963000D01*
X135255000Y-98425000D02*
X133223000Y-96393000D01*
X131318000Y-96393000D02*
X128651000Y-93726000D01*
X133223000Y-96393000D02*
X131318000Y-96393000D01*
X128397000Y-59944000D02*
X128397000Y-62357000D01*
X128397000Y-62357000D02*
X129540000Y-63500000D01*
X134620000Y-93980000D02*
X138430000Y-93980000D01*
X129540000Y-68199000D02*
X128397000Y-67056000D01*
X129540000Y-68707000D02*
X129540000Y-68199000D01*
X131953000Y-59944000D02*
X128397000Y-59944000D01*
X135890000Y-59944000D02*
X138811000Y-59944000D01*
X149860000Y-100330000D02*
X165100000Y-100330000D01*
X154940000Y-91694000D02*
X154940000Y-87757000D01*
X154940000Y-60706000D02*
X154940000Y-64516000D01*
X170180000Y-67564000D02*
X170180000Y-62484000D01*
X170180000Y-85090000D02*
X170180000Y-89916000D01*
X140335000Y-76200000D02*
X139065000Y-76200000D01*
X140335000Y-73660000D02*
X139065000Y-73660000D01*
X139065000Y-80010000D02*
X140335000Y-80010000D01*
X140335000Y-78740000D02*
X139065000Y-78740000D01*
X139065000Y-77470000D02*
X140335000Y-77470000D01*
X139065000Y-74930000D02*
X140335000Y-74930000D01*
X139065000Y-72390000D02*
X140335000Y-72390000D01*
X141605000Y-72390000D02*
X141605000Y-73660000D01*
X141605000Y-74930000D02*
X141605000Y-76200000D01*
X141605000Y-77470000D02*
X141605000Y-78740000D01*
X141605000Y-80010000D02*
X141605000Y-81280000D01*
X140335000Y-81280000D02*
X139065000Y-81280000D01*
X137795000Y-80010000D02*
X137795000Y-78740000D01*
X137795000Y-77470000D02*
X137795000Y-76200000D01*
X137795000Y-74930000D02*
X137795000Y-73660000D01*
X139065000Y-71120000D02*
X140335000Y-71120000D01*
D22*
X134874000Y-79121000D02*
X134874000Y-78740000D01*
X139065000Y-83312000D02*
X134874000Y-79121000D01*
X140970000Y-83312000D02*
X140589000Y-83312000D01*
X140589000Y-83312000D02*
X139827000Y-84074000D01*
X138176000Y-84074000D02*
X136017000Y-81915000D01*
X139827000Y-84074000D02*
X138176000Y-84074000D01*
X136398000Y-83947000D02*
X132461000Y-80010000D01*
D23*
G36*
X177477081Y-53793503D02*
X177474064Y-53800785D01*
X177453545Y-53831494D01*
X177446340Y-53867717D01*
X177432205Y-53901841D01*
X177432205Y-53938778D01*
X177425000Y-53975000D01*
X177425000Y-73025000D01*
X177432205Y-73061222D01*
X177432205Y-73098159D01*
X177446340Y-73132283D01*
X177453545Y-73168506D01*
X177474064Y-73199215D01*
X177488199Y-73233339D01*
X177514315Y-73259455D01*
X177534835Y-73290165D01*
X177565547Y-73310686D01*
X177591662Y-73336801D01*
X177625783Y-73350935D01*
X177656494Y-73371455D01*
X177692717Y-73378660D01*
X177700000Y-73381677D01*
X177700000Y-79018323D01*
X177692717Y-79021340D01*
X177656494Y-79028545D01*
X177625783Y-79049065D01*
X177591662Y-79063199D01*
X177565547Y-79089314D01*
X177534835Y-79109835D01*
X177514315Y-79140545D01*
X177488199Y-79166661D01*
X177474064Y-79200785D01*
X177453545Y-79231494D01*
X177446340Y-79267717D01*
X177432205Y-79301841D01*
X177432205Y-79338778D01*
X177425000Y-79375000D01*
X177425000Y-98425000D01*
X177432205Y-98461222D01*
X177432205Y-98498159D01*
X177446340Y-98532283D01*
X177453545Y-98568506D01*
X177474064Y-98599215D01*
X177477081Y-98606497D01*
X174806497Y-101277081D01*
X174799215Y-101274064D01*
X174768506Y-101253545D01*
X174732283Y-101246340D01*
X174698159Y-101232205D01*
X174661222Y-101232205D01*
X174625000Y-101225000D01*
X130175000Y-101225000D01*
X130138778Y-101232205D01*
X130101841Y-101232205D01*
X130067717Y-101246340D01*
X130031494Y-101253545D01*
X130000785Y-101274064D01*
X129993503Y-101277081D01*
X128542263Y-99825841D01*
X134066291Y-99825841D01*
X134241100Y-100075709D01*
X134949978Y-100338059D01*
X135705293Y-100309162D01*
X136268900Y-100075709D01*
X136443709Y-99825841D01*
X135255000Y-98637132D01*
X134066291Y-99825841D01*
X128542263Y-99825841D01*
X127322919Y-98606497D01*
X127325936Y-98599215D01*
X127346455Y-98568506D01*
X127353660Y-98532283D01*
X127367795Y-98498159D01*
X127367795Y-98461222D01*
X127375000Y-98425000D01*
X127375000Y-98119978D01*
X133341941Y-98119978D01*
X133370838Y-98875293D01*
X133604291Y-99438900D01*
X133854159Y-99613709D01*
X135042868Y-98425000D01*
X135467132Y-98425000D01*
X136655841Y-99613709D01*
X136905709Y-99438900D01*
X137168059Y-98730022D01*
X137139162Y-97974707D01*
X136905709Y-97411100D01*
X136752792Y-97304118D01*
X141343014Y-97304118D01*
X141413294Y-97465735D01*
X141813401Y-97585740D01*
X142228976Y-97543495D01*
X142416706Y-97465735D01*
X142486986Y-97304118D01*
X141915000Y-96732132D01*
X141343014Y-97304118D01*
X136752792Y-97304118D01*
X136655841Y-97236291D01*
X135467132Y-98425000D01*
X135042868Y-98425000D01*
X133854159Y-97236291D01*
X133604291Y-97411100D01*
X133341941Y-98119978D01*
X127375000Y-98119978D01*
X127375000Y-97024159D01*
X134066291Y-97024159D01*
X135255000Y-98212868D01*
X136443709Y-97024159D01*
X136268900Y-96774291D01*
X135560022Y-96511941D01*
X134804707Y-96540838D01*
X134241100Y-96774291D01*
X134066291Y-97024159D01*
X127375000Y-97024159D01*
X127375000Y-96418401D01*
X140849260Y-96418401D01*
X140891505Y-96833976D01*
X140969265Y-97021706D01*
X141130882Y-97091986D01*
X141702868Y-96520000D01*
X142127132Y-96520000D01*
X142699118Y-97091986D01*
X142860735Y-97021706D01*
X142980740Y-96621599D01*
X142938495Y-96206024D01*
X142860735Y-96018294D01*
X142699118Y-95948014D01*
X142127132Y-96520000D01*
X141702868Y-96520000D01*
X141130882Y-95948014D01*
X140969265Y-96018294D01*
X140849260Y-96418401D01*
X127375000Y-96418401D01*
X127375000Y-95735882D01*
X141343014Y-95735882D01*
X141915000Y-96307868D01*
X142486986Y-95735882D01*
X142416706Y-95574265D01*
X142016599Y-95454260D01*
X141601024Y-95496505D01*
X141413294Y-95574265D01*
X141343014Y-95735882D01*
X127375000Y-95735882D01*
X127375000Y-87887452D01*
X129509774Y-87887452D01*
X129707271Y-88365429D01*
X130072647Y-88731444D01*
X130478985Y-88900170D01*
X130074571Y-89067271D01*
X129708556Y-89432647D01*
X129510226Y-89910279D01*
X129509774Y-90427452D01*
X129707271Y-90905429D01*
X130072647Y-91271444D01*
X130550279Y-91469774D01*
X131067452Y-91470226D01*
X131545429Y-91272729D01*
X131911444Y-90907353D01*
X132080170Y-90501015D01*
X132247271Y-90905429D01*
X132612647Y-91271444D01*
X133090279Y-91469774D01*
X133607452Y-91470226D01*
X134085429Y-91272729D01*
X134451444Y-90907353D01*
X134620170Y-90501015D01*
X134787271Y-90905429D01*
X135152647Y-91271444D01*
X135630279Y-91469774D01*
X136147452Y-91470226D01*
X136625429Y-91272729D01*
X136991444Y-90907353D01*
X137189774Y-90429721D01*
X137190226Y-89912548D01*
X136992729Y-89434571D01*
X136627353Y-89068556D01*
X136149721Y-88870226D01*
X135632548Y-88869774D01*
X135154571Y-89067271D01*
X134788556Y-89432647D01*
X134619830Y-89838985D01*
X134452729Y-89434571D01*
X134087353Y-89068556D01*
X133609721Y-88870226D01*
X133092548Y-88869774D01*
X132614571Y-89067271D01*
X132248556Y-89432647D01*
X132079830Y-89838985D01*
X131912729Y-89434571D01*
X131547353Y-89068556D01*
X131141015Y-88899830D01*
X131545429Y-88732729D01*
X131911444Y-88367353D01*
X132109774Y-87889721D01*
X132110226Y-87372548D01*
X131912729Y-86894571D01*
X131547353Y-86528556D01*
X131069721Y-86330226D01*
X130552548Y-86329774D01*
X130074571Y-86527271D01*
X129708556Y-86892647D01*
X129510226Y-87370279D01*
X129509774Y-87887452D01*
X127375000Y-87887452D01*
X127375000Y-80128824D01*
X131860896Y-80128824D01*
X131952048Y-80349429D01*
X132120683Y-80518359D01*
X132341129Y-80609896D01*
X132389186Y-80609938D01*
X135797937Y-84018689D01*
X135797896Y-84065824D01*
X135889048Y-84286429D01*
X136057683Y-84455359D01*
X136278129Y-84546896D01*
X136516824Y-84547104D01*
X136737429Y-84455952D01*
X136906359Y-84287317D01*
X136997896Y-84066871D01*
X136998104Y-83828176D01*
X136906952Y-83607571D01*
X136738317Y-83438641D01*
X136517871Y-83347104D01*
X136469814Y-83347062D01*
X133061063Y-79938311D01*
X133061104Y-79891176D01*
X132969952Y-79670571D01*
X132801317Y-79501641D01*
X132580871Y-79410104D01*
X132342176Y-79409896D01*
X132121571Y-79501048D01*
X131952641Y-79669683D01*
X131861104Y-79890129D01*
X131860896Y-80128824D01*
X127375000Y-80128824D01*
X127375000Y-79375000D01*
X127367795Y-79338778D01*
X127367795Y-79301841D01*
X127353660Y-79267717D01*
X127346455Y-79231494D01*
X127325936Y-79200785D01*
X127311801Y-79166661D01*
X127285684Y-79140544D01*
X127265165Y-79109835D01*
X127234456Y-79089316D01*
X127208339Y-79063199D01*
X127174216Y-79049065D01*
X127143506Y-79028545D01*
X127107280Y-79021339D01*
X127100000Y-79018324D01*
X127100000Y-78858824D01*
X134273896Y-78858824D01*
X134365048Y-79079429D01*
X134399000Y-79113440D01*
X134399000Y-79121000D01*
X134435157Y-79302775D01*
X134538124Y-79456876D01*
X138464937Y-83383689D01*
X138464896Y-83430824D01*
X138534385Y-83599000D01*
X138372752Y-83599000D01*
X136617063Y-81843311D01*
X136617104Y-81796176D01*
X136525952Y-81575571D01*
X136357317Y-81406641D01*
X136136871Y-81315104D01*
X135898176Y-81314896D01*
X135677571Y-81406048D01*
X135508641Y-81574683D01*
X135417104Y-81795129D01*
X135416896Y-82033824D01*
X135508048Y-82254429D01*
X135676683Y-82423359D01*
X135897129Y-82514896D01*
X135945186Y-82514938D01*
X137840124Y-84409876D01*
X137994225Y-84512843D01*
X138176000Y-84549000D01*
X139827000Y-84549000D01*
X140008775Y-84512843D01*
X140162876Y-84409876D01*
X140716389Y-83856363D01*
X140850129Y-83911896D01*
X141088824Y-83912104D01*
X141309429Y-83820952D01*
X141478359Y-83652317D01*
X141569896Y-83431871D01*
X141570104Y-83193176D01*
X141478952Y-82972571D01*
X141310317Y-82803641D01*
X141089871Y-82712104D01*
X140851176Y-82711896D01*
X140630571Y-82803048D01*
X140596560Y-82837000D01*
X140589005Y-82837000D01*
X140589000Y-82836999D01*
X140437384Y-82867158D01*
X140407225Y-82873157D01*
X140259770Y-82971683D01*
X140253124Y-82976124D01*
X139630248Y-83599000D01*
X139595498Y-83599000D01*
X139664896Y-83431871D01*
X139665104Y-83193176D01*
X139573952Y-82972571D01*
X139405317Y-82803641D01*
X139184871Y-82712104D01*
X139136814Y-82712062D01*
X135418363Y-78993611D01*
X135473896Y-78859871D01*
X135474104Y-78621176D01*
X135382952Y-78400571D01*
X135214317Y-78231641D01*
X134993871Y-78140104D01*
X134755176Y-78139896D01*
X134534571Y-78231048D01*
X134365641Y-78399683D01*
X134274104Y-78620129D01*
X134273896Y-78858824D01*
X127100000Y-78858824D01*
X127100000Y-73381676D01*
X127107280Y-73378661D01*
X127143506Y-73371455D01*
X127174216Y-73350935D01*
X127208339Y-73336801D01*
X127234456Y-73310684D01*
X127265165Y-73290165D01*
X127285684Y-73259456D01*
X127311801Y-73233339D01*
X127325936Y-73199215D01*
X127346455Y-73168506D01*
X127353660Y-73132283D01*
X127367795Y-73098159D01*
X127367795Y-73061222D01*
X127375000Y-73025000D01*
X127375000Y-62487452D01*
X129509774Y-62487452D01*
X129707271Y-62965429D01*
X130072647Y-63331444D01*
X130478985Y-63500170D01*
X130074571Y-63667271D01*
X129708556Y-64032647D01*
X129510226Y-64510279D01*
X129509774Y-65027452D01*
X129707271Y-65505429D01*
X130072647Y-65871444D01*
X130550279Y-66069774D01*
X131067452Y-66070226D01*
X131545429Y-65872729D01*
X131911444Y-65507353D01*
X132109774Y-65029721D01*
X132110226Y-64512548D01*
X131912729Y-64034571D01*
X131547353Y-63668556D01*
X131141015Y-63499830D01*
X131545429Y-63332729D01*
X131911444Y-62967353D01*
X132080170Y-62561015D01*
X132247271Y-62965429D01*
X132612647Y-63331444D01*
X133090279Y-63529774D01*
X133607452Y-63530226D01*
X134085429Y-63332729D01*
X134451444Y-62967353D01*
X134649774Y-62489721D01*
X134650226Y-61972548D01*
X134452729Y-61494571D01*
X134087353Y-61128556D01*
X133609721Y-60930226D01*
X133092548Y-60929774D01*
X132614571Y-61127271D01*
X132248556Y-61492647D01*
X132079830Y-61898985D01*
X131912729Y-61494571D01*
X131547353Y-61128556D01*
X131069721Y-60930226D01*
X130552548Y-60929774D01*
X130074571Y-61127271D01*
X129708556Y-61492647D01*
X129510226Y-61970279D01*
X129509774Y-62487452D01*
X127375000Y-62487452D01*
X127375000Y-56664118D01*
X141343014Y-56664118D01*
X141413294Y-56825735D01*
X141813401Y-56945740D01*
X142228976Y-56903495D01*
X142416706Y-56825735D01*
X142486986Y-56664118D01*
X141915000Y-56092132D01*
X141343014Y-56664118D01*
X127375000Y-56664118D01*
X127375000Y-55778401D01*
X140849260Y-55778401D01*
X140891505Y-56193976D01*
X140969265Y-56381706D01*
X141130882Y-56451986D01*
X141702868Y-55880000D01*
X142127132Y-55880000D01*
X142699118Y-56451986D01*
X142860735Y-56381706D01*
X142980740Y-55981599D01*
X142938495Y-55566024D01*
X142860735Y-55378294D01*
X142699118Y-55308014D01*
X142127132Y-55880000D01*
X141702868Y-55880000D01*
X141130882Y-55308014D01*
X140969265Y-55378294D01*
X140849260Y-55778401D01*
X127375000Y-55778401D01*
X127375000Y-54331471D01*
X133454688Y-54331471D01*
X133728145Y-54993286D01*
X134234051Y-55500076D01*
X134895387Y-55774687D01*
X135611471Y-55775312D01*
X136273286Y-55501855D01*
X136500537Y-55275000D01*
X138938000Y-55275000D01*
X139435489Y-55176043D01*
X139555458Y-55095882D01*
X141343014Y-55095882D01*
X141915000Y-55667868D01*
X142486986Y-55095882D01*
X142416706Y-54934265D01*
X142016599Y-54814260D01*
X141601024Y-54856505D01*
X141413294Y-54934265D01*
X141343014Y-55095882D01*
X139555458Y-55095882D01*
X139857239Y-54894239D01*
X140619478Y-54132000D01*
X143733522Y-54132000D01*
X144588561Y-54987039D01*
X144551721Y-55010745D01*
X144483222Y-55110997D01*
X144459123Y-55230000D01*
X144459123Y-56530000D01*
X144480042Y-56641173D01*
X144545745Y-56743279D01*
X144645997Y-56811778D01*
X144765000Y-56835877D01*
X145947594Y-56835877D01*
X146314512Y-57081043D01*
X146812000Y-57180000D01*
X158211522Y-57180000D01*
X166340000Y-65308478D01*
X166340000Y-86837522D01*
X157957522Y-95220000D01*
X145415000Y-95220000D01*
X144917512Y-95318957D01*
X144495761Y-95600761D01*
X144213957Y-96022512D01*
X144115000Y-96520000D01*
X144213957Y-97017488D01*
X144495761Y-97439239D01*
X144917512Y-97721043D01*
X145415000Y-97820000D01*
X158496000Y-97820000D01*
X158993489Y-97721043D01*
X159415239Y-97439239D01*
X160077026Y-96777452D01*
X172689774Y-96777452D01*
X172887271Y-97255429D01*
X173252647Y-97621444D01*
X173730279Y-97819774D01*
X174247452Y-97820226D01*
X174725429Y-97622729D01*
X175091444Y-97257353D01*
X175289774Y-96779721D01*
X175290226Y-96262548D01*
X175092729Y-95784571D01*
X174727353Y-95418556D01*
X174249721Y-95220226D01*
X173732548Y-95219774D01*
X173254571Y-95417271D01*
X172888556Y-95782647D01*
X172690226Y-96260279D01*
X172689774Y-96777452D01*
X160077026Y-96777452D01*
X165157026Y-91697452D01*
X172689774Y-91697452D01*
X172887271Y-92175429D01*
X173252647Y-92541444D01*
X173730279Y-92739774D01*
X174247452Y-92740226D01*
X174725429Y-92542729D01*
X175091444Y-92177353D01*
X175289774Y-91699721D01*
X175290226Y-91182548D01*
X175092729Y-90704571D01*
X174727353Y-90338556D01*
X174249721Y-90140226D01*
X173732548Y-90139774D01*
X173254571Y-90337271D01*
X172888556Y-90702647D01*
X172690226Y-91180279D01*
X172689774Y-91697452D01*
X165157026Y-91697452D01*
X168559239Y-88295239D01*
X168841043Y-87873488D01*
X168940000Y-87376000D01*
X168940000Y-64770005D01*
X168940001Y-64770000D01*
X168841043Y-64272512D01*
X168559239Y-63850761D01*
X165925930Y-61217452D01*
X172689774Y-61217452D01*
X172887271Y-61695429D01*
X173252647Y-62061444D01*
X173730279Y-62259774D01*
X174247452Y-62260226D01*
X174725429Y-62062729D01*
X175091444Y-61697353D01*
X175289774Y-61219721D01*
X175290226Y-60702548D01*
X175092729Y-60224571D01*
X174727353Y-59858556D01*
X174249721Y-59660226D01*
X173732548Y-59659774D01*
X173254571Y-59857271D01*
X172888556Y-60222647D01*
X172690226Y-60700279D01*
X172689774Y-61217452D01*
X165925930Y-61217452D01*
X160845930Y-56137452D01*
X172689774Y-56137452D01*
X172887271Y-56615429D01*
X173252647Y-56981444D01*
X173730279Y-57179774D01*
X174247452Y-57180226D01*
X174725429Y-56982729D01*
X175091444Y-56617353D01*
X175289774Y-56139721D01*
X175290226Y-55622548D01*
X175092729Y-55144571D01*
X174727353Y-54778556D01*
X174249721Y-54580226D01*
X173732548Y-54579774D01*
X173254571Y-54777271D01*
X172888556Y-55142647D01*
X172690226Y-55620279D01*
X172689774Y-56137452D01*
X160845930Y-56137452D01*
X159669239Y-54960761D01*
X159247489Y-54678957D01*
X158750000Y-54580000D01*
X147858478Y-54580000D01*
X145191239Y-51912761D01*
X144769489Y-51630957D01*
X144272000Y-51532000D01*
X140081000Y-51532000D01*
X139583511Y-51630957D01*
X139161761Y-51912761D01*
X138399522Y-52675000D01*
X136500632Y-52675000D01*
X136275949Y-52449924D01*
X135614613Y-52175313D01*
X134898529Y-52174688D01*
X134236714Y-52448145D01*
X133729924Y-52954051D01*
X133455313Y-53615387D01*
X133454688Y-54331471D01*
X127375000Y-54331471D01*
X127375000Y-53975000D01*
X127367795Y-53938778D01*
X127367795Y-53901841D01*
X127353660Y-53867717D01*
X127346455Y-53831494D01*
X127325936Y-53800785D01*
X127322919Y-53793503D01*
X129993503Y-51122919D01*
X130000785Y-51125936D01*
X130031494Y-51146455D01*
X130067717Y-51153660D01*
X130101841Y-51167795D01*
X130138778Y-51167795D01*
X130175000Y-51175000D01*
X174625000Y-51175000D01*
X174661222Y-51167795D01*
X174698159Y-51167795D01*
X174732283Y-51153660D01*
X174768506Y-51146455D01*
X174799215Y-51125936D01*
X174806497Y-51122919D01*
X177477081Y-53793503D01*
X177477081Y-53793503D01*
G37*
X177477081Y-53793503D02*
X177474064Y-53800785D01*
X177453545Y-53831494D01*
X177446340Y-53867717D01*
X177432205Y-53901841D01*
X177432205Y-53938778D01*
X177425000Y-53975000D01*
X177425000Y-73025000D01*
X177432205Y-73061222D01*
X177432205Y-73098159D01*
X177446340Y-73132283D01*
X177453545Y-73168506D01*
X177474064Y-73199215D01*
X177488199Y-73233339D01*
X177514315Y-73259455D01*
X177534835Y-73290165D01*
X177565547Y-73310686D01*
X177591662Y-73336801D01*
X177625783Y-73350935D01*
X177656494Y-73371455D01*
X177692717Y-73378660D01*
X177700000Y-73381677D01*
X177700000Y-79018323D01*
X177692717Y-79021340D01*
X177656494Y-79028545D01*
X177625783Y-79049065D01*
X177591662Y-79063199D01*
X177565547Y-79089314D01*
X177534835Y-79109835D01*
X177514315Y-79140545D01*
X177488199Y-79166661D01*
X177474064Y-79200785D01*
X177453545Y-79231494D01*
X177446340Y-79267717D01*
X177432205Y-79301841D01*
X177432205Y-79338778D01*
X177425000Y-79375000D01*
X177425000Y-98425000D01*
X177432205Y-98461222D01*
X177432205Y-98498159D01*
X177446340Y-98532283D01*
X177453545Y-98568506D01*
X177474064Y-98599215D01*
X177477081Y-98606497D01*
X174806497Y-101277081D01*
X174799215Y-101274064D01*
X174768506Y-101253545D01*
X174732283Y-101246340D01*
X174698159Y-101232205D01*
X174661222Y-101232205D01*
X174625000Y-101225000D01*
X130175000Y-101225000D01*
X130138778Y-101232205D01*
X130101841Y-101232205D01*
X130067717Y-101246340D01*
X130031494Y-101253545D01*
X130000785Y-101274064D01*
X129993503Y-101277081D01*
X128542263Y-99825841D01*
X134066291Y-99825841D01*
X134241100Y-100075709D01*
X134949978Y-100338059D01*
X135705293Y-100309162D01*
X136268900Y-100075709D01*
X136443709Y-99825841D01*
X135255000Y-98637132D01*
X134066291Y-99825841D01*
X128542263Y-99825841D01*
X127322919Y-98606497D01*
X127325936Y-98599215D01*
X127346455Y-98568506D01*
X127353660Y-98532283D01*
X127367795Y-98498159D01*
X127367795Y-98461222D01*
X127375000Y-98425000D01*
X127375000Y-98119978D01*
X133341941Y-98119978D01*
X133370838Y-98875293D01*
X133604291Y-99438900D01*
X133854159Y-99613709D01*
X135042868Y-98425000D01*
X135467132Y-98425000D01*
X136655841Y-99613709D01*
X136905709Y-99438900D01*
X137168059Y-98730022D01*
X137139162Y-97974707D01*
X136905709Y-97411100D01*
X136752792Y-97304118D01*
X141343014Y-97304118D01*
X141413294Y-97465735D01*
X141813401Y-97585740D01*
X142228976Y-97543495D01*
X142416706Y-97465735D01*
X142486986Y-97304118D01*
X141915000Y-96732132D01*
X141343014Y-97304118D01*
X136752792Y-97304118D01*
X136655841Y-97236291D01*
X135467132Y-98425000D01*
X135042868Y-98425000D01*
X133854159Y-97236291D01*
X133604291Y-97411100D01*
X133341941Y-98119978D01*
X127375000Y-98119978D01*
X127375000Y-97024159D01*
X134066291Y-97024159D01*
X135255000Y-98212868D01*
X136443709Y-97024159D01*
X136268900Y-96774291D01*
X135560022Y-96511941D01*
X134804707Y-96540838D01*
X134241100Y-96774291D01*
X134066291Y-97024159D01*
X127375000Y-97024159D01*
X127375000Y-96418401D01*
X140849260Y-96418401D01*
X140891505Y-96833976D01*
X140969265Y-97021706D01*
X141130882Y-97091986D01*
X141702868Y-96520000D01*
X142127132Y-96520000D01*
X142699118Y-97091986D01*
X142860735Y-97021706D01*
X142980740Y-96621599D01*
X142938495Y-96206024D01*
X142860735Y-96018294D01*
X142699118Y-95948014D01*
X142127132Y-96520000D01*
X141702868Y-96520000D01*
X141130882Y-95948014D01*
X140969265Y-96018294D01*
X140849260Y-96418401D01*
X127375000Y-96418401D01*
X127375000Y-95735882D01*
X141343014Y-95735882D01*
X141915000Y-96307868D01*
X142486986Y-95735882D01*
X142416706Y-95574265D01*
X142016599Y-95454260D01*
X141601024Y-95496505D01*
X141413294Y-95574265D01*
X141343014Y-95735882D01*
X127375000Y-95735882D01*
X127375000Y-87887452D01*
X129509774Y-87887452D01*
X129707271Y-88365429D01*
X130072647Y-88731444D01*
X130478985Y-88900170D01*
X130074571Y-89067271D01*
X129708556Y-89432647D01*
X129510226Y-89910279D01*
X129509774Y-90427452D01*
X129707271Y-90905429D01*
X130072647Y-91271444D01*
X130550279Y-91469774D01*
X131067452Y-91470226D01*
X131545429Y-91272729D01*
X131911444Y-90907353D01*
X132080170Y-90501015D01*
X132247271Y-90905429D01*
X132612647Y-91271444D01*
X133090279Y-91469774D01*
X133607452Y-91470226D01*
X134085429Y-91272729D01*
X134451444Y-90907353D01*
X134620170Y-90501015D01*
X134787271Y-90905429D01*
X135152647Y-91271444D01*
X135630279Y-91469774D01*
X136147452Y-91470226D01*
X136625429Y-91272729D01*
X136991444Y-90907353D01*
X137189774Y-90429721D01*
X137190226Y-89912548D01*
X136992729Y-89434571D01*
X136627353Y-89068556D01*
X136149721Y-88870226D01*
X135632548Y-88869774D01*
X135154571Y-89067271D01*
X134788556Y-89432647D01*
X134619830Y-89838985D01*
X134452729Y-89434571D01*
X134087353Y-89068556D01*
X133609721Y-88870226D01*
X133092548Y-88869774D01*
X132614571Y-89067271D01*
X132248556Y-89432647D01*
X132079830Y-89838985D01*
X131912729Y-89434571D01*
X131547353Y-89068556D01*
X131141015Y-88899830D01*
X131545429Y-88732729D01*
X131911444Y-88367353D01*
X132109774Y-87889721D01*
X132110226Y-87372548D01*
X131912729Y-86894571D01*
X131547353Y-86528556D01*
X131069721Y-86330226D01*
X130552548Y-86329774D01*
X130074571Y-86527271D01*
X129708556Y-86892647D01*
X129510226Y-87370279D01*
X129509774Y-87887452D01*
X127375000Y-87887452D01*
X127375000Y-80128824D01*
X131860896Y-80128824D01*
X131952048Y-80349429D01*
X132120683Y-80518359D01*
X132341129Y-80609896D01*
X132389186Y-80609938D01*
X135797937Y-84018689D01*
X135797896Y-84065824D01*
X135889048Y-84286429D01*
X136057683Y-84455359D01*
X136278129Y-84546896D01*
X136516824Y-84547104D01*
X136737429Y-84455952D01*
X136906359Y-84287317D01*
X136997896Y-84066871D01*
X136998104Y-83828176D01*
X136906952Y-83607571D01*
X136738317Y-83438641D01*
X136517871Y-83347104D01*
X136469814Y-83347062D01*
X133061063Y-79938311D01*
X133061104Y-79891176D01*
X132969952Y-79670571D01*
X132801317Y-79501641D01*
X132580871Y-79410104D01*
X132342176Y-79409896D01*
X132121571Y-79501048D01*
X131952641Y-79669683D01*
X131861104Y-79890129D01*
X131860896Y-80128824D01*
X127375000Y-80128824D01*
X127375000Y-79375000D01*
X127367795Y-79338778D01*
X127367795Y-79301841D01*
X127353660Y-79267717D01*
X127346455Y-79231494D01*
X127325936Y-79200785D01*
X127311801Y-79166661D01*
X127285684Y-79140544D01*
X127265165Y-79109835D01*
X127234456Y-79089316D01*
X127208339Y-79063199D01*
X127174216Y-79049065D01*
X127143506Y-79028545D01*
X127107280Y-79021339D01*
X127100000Y-79018324D01*
X127100000Y-78858824D01*
X134273896Y-78858824D01*
X134365048Y-79079429D01*
X134399000Y-79113440D01*
X134399000Y-79121000D01*
X134435157Y-79302775D01*
X134538124Y-79456876D01*
X138464937Y-83383689D01*
X138464896Y-83430824D01*
X138534385Y-83599000D01*
X138372752Y-83599000D01*
X136617063Y-81843311D01*
X136617104Y-81796176D01*
X136525952Y-81575571D01*
X136357317Y-81406641D01*
X136136871Y-81315104D01*
X135898176Y-81314896D01*
X135677571Y-81406048D01*
X135508641Y-81574683D01*
X135417104Y-81795129D01*
X135416896Y-82033824D01*
X135508048Y-82254429D01*
X135676683Y-82423359D01*
X135897129Y-82514896D01*
X135945186Y-82514938D01*
X137840124Y-84409876D01*
X137994225Y-84512843D01*
X138176000Y-84549000D01*
X139827000Y-84549000D01*
X140008775Y-84512843D01*
X140162876Y-84409876D01*
X140716389Y-83856363D01*
X140850129Y-83911896D01*
X141088824Y-83912104D01*
X141309429Y-83820952D01*
X141478359Y-83652317D01*
X141569896Y-83431871D01*
X141570104Y-83193176D01*
X141478952Y-82972571D01*
X141310317Y-82803641D01*
X141089871Y-82712104D01*
X140851176Y-82711896D01*
X140630571Y-82803048D01*
X140596560Y-82837000D01*
X140589005Y-82837000D01*
X140589000Y-82836999D01*
X140437384Y-82867158D01*
X140407225Y-82873157D01*
X140259770Y-82971683D01*
X140253124Y-82976124D01*
X139630248Y-83599000D01*
X139595498Y-83599000D01*
X139664896Y-83431871D01*
X139665104Y-83193176D01*
X139573952Y-82972571D01*
X139405317Y-82803641D01*
X139184871Y-82712104D01*
X139136814Y-82712062D01*
X135418363Y-78993611D01*
X135473896Y-78859871D01*
X135474104Y-78621176D01*
X135382952Y-78400571D01*
X135214317Y-78231641D01*
X134993871Y-78140104D01*
X134755176Y-78139896D01*
X134534571Y-78231048D01*
X134365641Y-78399683D01*
X134274104Y-78620129D01*
X134273896Y-78858824D01*
X127100000Y-78858824D01*
X127100000Y-73381676D01*
X127107280Y-73378661D01*
X127143506Y-73371455D01*
X127174216Y-73350935D01*
X127208339Y-73336801D01*
X127234456Y-73310684D01*
X127265165Y-73290165D01*
X127285684Y-73259456D01*
X127311801Y-73233339D01*
X127325936Y-73199215D01*
X127346455Y-73168506D01*
X127353660Y-73132283D01*
X127367795Y-73098159D01*
X127367795Y-73061222D01*
X127375000Y-73025000D01*
X127375000Y-62487452D01*
X129509774Y-62487452D01*
X129707271Y-62965429D01*
X130072647Y-63331444D01*
X130478985Y-63500170D01*
X130074571Y-63667271D01*
X129708556Y-64032647D01*
X129510226Y-64510279D01*
X129509774Y-65027452D01*
X129707271Y-65505429D01*
X130072647Y-65871444D01*
X130550279Y-66069774D01*
X131067452Y-66070226D01*
X131545429Y-65872729D01*
X131911444Y-65507353D01*
X132109774Y-65029721D01*
X132110226Y-64512548D01*
X131912729Y-64034571D01*
X131547353Y-63668556D01*
X131141015Y-63499830D01*
X131545429Y-63332729D01*
X131911444Y-62967353D01*
X132080170Y-62561015D01*
X132247271Y-62965429D01*
X132612647Y-63331444D01*
X133090279Y-63529774D01*
X133607452Y-63530226D01*
X134085429Y-63332729D01*
X134451444Y-62967353D01*
X134649774Y-62489721D01*
X134650226Y-61972548D01*
X134452729Y-61494571D01*
X134087353Y-61128556D01*
X133609721Y-60930226D01*
X133092548Y-60929774D01*
X132614571Y-61127271D01*
X132248556Y-61492647D01*
X132079830Y-61898985D01*
X131912729Y-61494571D01*
X131547353Y-61128556D01*
X131069721Y-60930226D01*
X130552548Y-60929774D01*
X130074571Y-61127271D01*
X129708556Y-61492647D01*
X129510226Y-61970279D01*
X129509774Y-62487452D01*
X127375000Y-62487452D01*
X127375000Y-56664118D01*
X141343014Y-56664118D01*
X141413294Y-56825735D01*
X141813401Y-56945740D01*
X142228976Y-56903495D01*
X142416706Y-56825735D01*
X142486986Y-56664118D01*
X141915000Y-56092132D01*
X141343014Y-56664118D01*
X127375000Y-56664118D01*
X127375000Y-55778401D01*
X140849260Y-55778401D01*
X140891505Y-56193976D01*
X140969265Y-56381706D01*
X141130882Y-56451986D01*
X141702868Y-55880000D01*
X142127132Y-55880000D01*
X142699118Y-56451986D01*
X142860735Y-56381706D01*
X142980740Y-55981599D01*
X142938495Y-55566024D01*
X142860735Y-55378294D01*
X142699118Y-55308014D01*
X142127132Y-55880000D01*
X141702868Y-55880000D01*
X141130882Y-55308014D01*
X140969265Y-55378294D01*
X140849260Y-55778401D01*
X127375000Y-55778401D01*
X127375000Y-54331471D01*
X133454688Y-54331471D01*
X133728145Y-54993286D01*
X134234051Y-55500076D01*
X134895387Y-55774687D01*
X135611471Y-55775312D01*
X136273286Y-55501855D01*
X136500537Y-55275000D01*
X138938000Y-55275000D01*
X139435489Y-55176043D01*
X139555458Y-55095882D01*
X141343014Y-55095882D01*
X141915000Y-55667868D01*
X142486986Y-55095882D01*
X142416706Y-54934265D01*
X142016599Y-54814260D01*
X141601024Y-54856505D01*
X141413294Y-54934265D01*
X141343014Y-55095882D01*
X139555458Y-55095882D01*
X139857239Y-54894239D01*
X140619478Y-54132000D01*
X143733522Y-54132000D01*
X144588561Y-54987039D01*
X144551721Y-55010745D01*
X144483222Y-55110997D01*
X144459123Y-55230000D01*
X144459123Y-56530000D01*
X144480042Y-56641173D01*
X144545745Y-56743279D01*
X144645997Y-56811778D01*
X144765000Y-56835877D01*
X145947594Y-56835877D01*
X146314512Y-57081043D01*
X146812000Y-57180000D01*
X158211522Y-57180000D01*
X166340000Y-65308478D01*
X166340000Y-86837522D01*
X157957522Y-95220000D01*
X145415000Y-95220000D01*
X144917512Y-95318957D01*
X144495761Y-95600761D01*
X144213957Y-96022512D01*
X144115000Y-96520000D01*
X144213957Y-97017488D01*
X144495761Y-97439239D01*
X144917512Y-97721043D01*
X145415000Y-97820000D01*
X158496000Y-97820000D01*
X158993489Y-97721043D01*
X159415239Y-97439239D01*
X160077026Y-96777452D01*
X172689774Y-96777452D01*
X172887271Y-97255429D01*
X173252647Y-97621444D01*
X173730279Y-97819774D01*
X174247452Y-97820226D01*
X174725429Y-97622729D01*
X175091444Y-97257353D01*
X175289774Y-96779721D01*
X175290226Y-96262548D01*
X175092729Y-95784571D01*
X174727353Y-95418556D01*
X174249721Y-95220226D01*
X173732548Y-95219774D01*
X173254571Y-95417271D01*
X172888556Y-95782647D01*
X172690226Y-96260279D01*
X172689774Y-96777452D01*
X160077026Y-96777452D01*
X165157026Y-91697452D01*
X172689774Y-91697452D01*
X172887271Y-92175429D01*
X173252647Y-92541444D01*
X173730279Y-92739774D01*
X174247452Y-92740226D01*
X174725429Y-92542729D01*
X175091444Y-92177353D01*
X175289774Y-91699721D01*
X175290226Y-91182548D01*
X175092729Y-90704571D01*
X174727353Y-90338556D01*
X174249721Y-90140226D01*
X173732548Y-90139774D01*
X173254571Y-90337271D01*
X172888556Y-90702647D01*
X172690226Y-91180279D01*
X172689774Y-91697452D01*
X165157026Y-91697452D01*
X168559239Y-88295239D01*
X168841043Y-87873488D01*
X168940000Y-87376000D01*
X168940000Y-64770005D01*
X168940001Y-64770000D01*
X168841043Y-64272512D01*
X168559239Y-63850761D01*
X165925930Y-61217452D01*
X172689774Y-61217452D01*
X172887271Y-61695429D01*
X173252647Y-62061444D01*
X173730279Y-62259774D01*
X174247452Y-62260226D01*
X174725429Y-62062729D01*
X175091444Y-61697353D01*
X175289774Y-61219721D01*
X175290226Y-60702548D01*
X175092729Y-60224571D01*
X174727353Y-59858556D01*
X174249721Y-59660226D01*
X173732548Y-59659774D01*
X173254571Y-59857271D01*
X172888556Y-60222647D01*
X172690226Y-60700279D01*
X172689774Y-61217452D01*
X165925930Y-61217452D01*
X160845930Y-56137452D01*
X172689774Y-56137452D01*
X172887271Y-56615429D01*
X173252647Y-56981444D01*
X173730279Y-57179774D01*
X174247452Y-57180226D01*
X174725429Y-56982729D01*
X175091444Y-56617353D01*
X175289774Y-56139721D01*
X175290226Y-55622548D01*
X175092729Y-55144571D01*
X174727353Y-54778556D01*
X174249721Y-54580226D01*
X173732548Y-54579774D01*
X173254571Y-54777271D01*
X172888556Y-55142647D01*
X172690226Y-55620279D01*
X172689774Y-56137452D01*
X160845930Y-56137452D01*
X159669239Y-54960761D01*
X159247489Y-54678957D01*
X158750000Y-54580000D01*
X147858478Y-54580000D01*
X145191239Y-51912761D01*
X144769489Y-51630957D01*
X144272000Y-51532000D01*
X140081000Y-51532000D01*
X139583511Y-51630957D01*
X139161761Y-51912761D01*
X138399522Y-52675000D01*
X136500632Y-52675000D01*
X136275949Y-52449924D01*
X135614613Y-52175313D01*
X134898529Y-52174688D01*
X134236714Y-52448145D01*
X133729924Y-52954051D01*
X133455313Y-53615387D01*
X133454688Y-54331471D01*
X127375000Y-54331471D01*
X127375000Y-53975000D01*
X127367795Y-53938778D01*
X127367795Y-53901841D01*
X127353660Y-53867717D01*
X127346455Y-53831494D01*
X127325936Y-53800785D01*
X127322919Y-53793503D01*
X129993503Y-51122919D01*
X130000785Y-51125936D01*
X130031494Y-51146455D01*
X130067717Y-51153660D01*
X130101841Y-51167795D01*
X130138778Y-51167795D01*
X130175000Y-51175000D01*
X174625000Y-51175000D01*
X174661222Y-51167795D01*
X174698159Y-51167795D01*
X174732283Y-51153660D01*
X174768506Y-51146455D01*
X174799215Y-51125936D01*
X174806497Y-51122919D01*
X177477081Y-53793503D01*
M02*
