G04 #@! TF.FileFunction,Soldermask,Top*
%FSLAX46Y46*%
G04 Gerber Fmt 4.6, Leading zero omitted, Abs format (unit mm)*
G04 Created by KiCad (PCBNEW 4.0.5) date 04/25/17 13:15:46*
%MOMM*%
%LPD*%
G01*
G04 APERTURE LIST*
%ADD10C,0.100000*%
%ADD11R,1.870000X0.820000*%
%ADD12R,3.300680X5.800040*%
%ADD13R,1.400760X1.299160*%
%ADD14R,1.299160X1.400760*%
%ADD15R,1.150000X1.200000*%
%ADD16R,2.000200X2.203400*%
%ADD17C,1.700000*%
%ADD18R,1.700000X1.700000*%
%ADD19R,2.000000X1.400000*%
%ADD20C,3.400000*%
%ADD21C,2.400000*%
%ADD22R,1.300000X1.600000*%
%ADD23C,6.800000*%
%ADD24R,3.200000X6.600000*%
%ADD25C,6.400000*%
G04 APERTURE END LIST*
D10*
D11*
X136100000Y-75874880D03*
X136100000Y-76525120D03*
X136100000Y-77175360D03*
X136100000Y-77825600D03*
X143300000Y-73934320D03*
X136100000Y-73924160D03*
X136100000Y-74574400D03*
X136100000Y-75224640D03*
X143300000Y-78475840D03*
X143300000Y-77825600D03*
X143300000Y-77175360D03*
X143300000Y-76525120D03*
X143300000Y-75874880D03*
X143300000Y-75224640D03*
X136100000Y-78475840D03*
X143300000Y-74574400D03*
X136100000Y-73273920D03*
X136100000Y-79126080D03*
X143300000Y-79126080D03*
X143300000Y-73273920D03*
X136100000Y-72626220D03*
X136100000Y-79773780D03*
X143300000Y-79773780D03*
X143300000Y-72626220D03*
X136100000Y-71975980D03*
X136100000Y-80424020D03*
X143300000Y-80424020D03*
X143300000Y-71975980D03*
X136100000Y-71325740D03*
X136100000Y-81074260D03*
X143300000Y-81074260D03*
X143300000Y-71325740D03*
D12*
X150624540Y-57785000D03*
X160525460Y-57785000D03*
X173860460Y-69215000D03*
X163959540Y-69215000D03*
X163959540Y-83185000D03*
X173860460Y-83185000D03*
X160525460Y-94615000D03*
X150624540Y-94615000D03*
D13*
X137795000Y-64653160D03*
X137795000Y-66156840D03*
X165100000Y-53858160D03*
X165100000Y-55361840D03*
X160020000Y-67426840D03*
X160020000Y-65923160D03*
D14*
X131328160Y-74930000D03*
X132831840Y-74930000D03*
D13*
X154940000Y-65923160D03*
X154940000Y-67426840D03*
X160020000Y-84973160D03*
X160020000Y-86476840D03*
D14*
X132831840Y-76835000D03*
X131328160Y-76835000D03*
D13*
X154940000Y-86476840D03*
X154940000Y-84973160D03*
X170180000Y-98541840D03*
X170180000Y-97038160D03*
X165100000Y-98541840D03*
X165100000Y-97038160D03*
X139065000Y-85841840D03*
X139065000Y-84338160D03*
X140970000Y-84338160D03*
X140970000Y-85841840D03*
D15*
X135890000Y-66155000D03*
X135890000Y-64655000D03*
D13*
X170180000Y-53858160D03*
X170180000Y-55361840D03*
D16*
X144907000Y-62230000D03*
X142113000Y-62230000D03*
D13*
X139700000Y-66156840D03*
X139700000Y-64653160D03*
D17*
X141915000Y-55880000D03*
D18*
X145415000Y-55880000D03*
D19*
X170180000Y-57555000D03*
X170180000Y-60555000D03*
D15*
X133985000Y-66155000D03*
X133985000Y-64655000D03*
D19*
X160020000Y-70255000D03*
X160020000Y-73255000D03*
X160020000Y-82145000D03*
X160020000Y-79145000D03*
D15*
X131445000Y-79895000D03*
X131445000Y-81395000D03*
X133350000Y-79895000D03*
X133350000Y-81395000D03*
D19*
X170180000Y-94845000D03*
X170180000Y-91845000D03*
D16*
X144907000Y-90170000D03*
X142113000Y-90170000D03*
D13*
X142875000Y-84338160D03*
X142875000Y-85841840D03*
D17*
X141915000Y-96520000D03*
D18*
X145415000Y-96520000D03*
D20*
X135255000Y-53975000D03*
X135255000Y-98425000D03*
D21*
X133350000Y-62230000D03*
X130810000Y-62230000D03*
X130810000Y-64770000D03*
X130810000Y-87630000D03*
X130810000Y-90170000D03*
X133350000Y-90170000D03*
X135890000Y-90170000D03*
D22*
X133350000Y-86190000D03*
X133350000Y-83990000D03*
X135382000Y-86190000D03*
X135382000Y-83990000D03*
X137287000Y-86190000D03*
X137287000Y-83990000D03*
D21*
X173990000Y-55880000D03*
X173990000Y-60960000D03*
X173990000Y-91440000D03*
X173990000Y-96520000D03*
D23*
X152400000Y-76200000D03*
D13*
X150749000Y-82666840D03*
X150749000Y-81163160D03*
X150876000Y-69733160D03*
X150876000Y-71236840D03*
X147320000Y-67426840D03*
X147320000Y-65923160D03*
X147320000Y-84973160D03*
X147320000Y-86476840D03*
X157480000Y-65923160D03*
X157480000Y-67426840D03*
X157480000Y-71003160D03*
X157480000Y-72506840D03*
X157480000Y-81396840D03*
X157480000Y-79893160D03*
X157480000Y-86476840D03*
X157480000Y-84973160D03*
X167640000Y-53858160D03*
X167640000Y-55361840D03*
X167640000Y-98541840D03*
X167640000Y-97038160D03*
X165100000Y-93461840D03*
X165100000Y-91958160D03*
X165100000Y-58938160D03*
X165100000Y-60441840D03*
D22*
X132715000Y-72220000D03*
X132715000Y-70020000D03*
D13*
X129540000Y-71871840D03*
X129540000Y-70368160D03*
D24*
X139700000Y-76200000D03*
D25*
X177800000Y-50800000D03*
X127000000Y-50800000D03*
X177800000Y-76200000D03*
X127000000Y-76200000D03*
X127000000Y-101600000D03*
X177800000Y-101600000D03*
M02*
